<mxfile host="app.diagrams.net" agent="Mozilla/5.0 (Windows NT 10.0; Win64; x64) AppleWebKit/537.36 (KHTML, like Gecko) Chrome/130.0.0.0 Safari/537.36 Edg/130.0.0.0" version="24.8.4">
  <diagram name="ERD" id="b520641d-4fe3-3701-9064-5fc419738815">
    <mxGraphModel dx="2127" dy="1022" grid="1" gridSize="10" guides="1" tooltips="1" connect="1" arrows="1" fold="1" page="1" pageScale="1" pageWidth="1300" pageHeight="850" background="none" math="0" shadow="0">
      <root>
        <mxCell id="0" />
        <mxCell id="1" parent="0" />
        <mxCell id="kRjiYqjKtC23JgH-O0qc-84" value="" style="group" parent="1" vertex="1" connectable="0">
          <mxGeometry x="130" y="165" width="180" height="260" as="geometry" />
        </mxCell>
        <mxCell id="kRjiYqjKtC23JgH-O0qc-2" value="USER" style="shape=table;startSize=30;container=1;collapsible=1;childLayout=tableLayout;fixedRows=1;rowLines=0;fontStyle=1;align=center;resizeLast=1;html=1;editable=1;movable=1;resizable=1;rotatable=1;deletable=1;locked=0;connectable=1;" parent="kRjiYqjKtC23JgH-O0qc-84" vertex="1">
          <mxGeometry width="180" height="260" as="geometry">
            <mxRectangle x="70" y="70" width="70" height="30" as="alternateBounds" />
          </mxGeometry>
        </mxCell>
        <mxCell id="kRjiYqjKtC23JgH-O0qc-3" value="" style="shape=tableRow;horizontal=0;startSize=0;swimlaneHead=0;swimlaneBody=0;fillColor=none;collapsible=0;dropTarget=0;points=[[0,0.5],[1,0.5]];portConstraint=eastwest;top=0;left=0;right=0;bottom=1;movable=1;resizable=1;rotatable=1;deletable=1;editable=1;locked=0;connectable=1;" parent="kRjiYqjKtC23JgH-O0qc-2" vertex="1">
          <mxGeometry y="30" width="180" height="30" as="geometry" />
        </mxCell>
        <mxCell id="kRjiYqjKtC23JgH-O0qc-4" value="PK" style="shape=partialRectangle;connectable=1;fillColor=none;top=0;left=0;bottom=0;right=0;fontStyle=1;overflow=hidden;whiteSpace=wrap;html=1;movable=1;resizable=1;rotatable=1;deletable=1;editable=1;locked=0;" parent="kRjiYqjKtC23JgH-O0qc-3" vertex="1">
          <mxGeometry width="30" height="30" as="geometry">
            <mxRectangle width="30" height="30" as="alternateBounds" />
          </mxGeometry>
        </mxCell>
        <mxCell id="kRjiYqjKtC23JgH-O0qc-5" value="UID" style="shape=partialRectangle;connectable=1;fillColor=none;top=0;left=0;bottom=0;right=0;align=left;spacingLeft=6;fontStyle=5;overflow=hidden;whiteSpace=wrap;html=1;movable=1;resizable=1;rotatable=1;deletable=1;editable=1;locked=0;" parent="kRjiYqjKtC23JgH-O0qc-3" vertex="1">
          <mxGeometry x="30" width="150" height="30" as="geometry">
            <mxRectangle width="150" height="30" as="alternateBounds" />
          </mxGeometry>
        </mxCell>
        <mxCell id="kRjiYqjKtC23JgH-O0qc-6" value="" style="shape=tableRow;horizontal=0;startSize=0;swimlaneHead=0;swimlaneBody=0;fillColor=none;collapsible=0;dropTarget=0;points=[[0,0.5],[1,0.5]];portConstraint=eastwest;top=0;left=0;right=0;bottom=0;movable=1;resizable=1;rotatable=1;deletable=1;editable=1;locked=0;connectable=1;" parent="kRjiYqjKtC23JgH-O0qc-2" vertex="1">
          <mxGeometry y="60" width="180" height="30" as="geometry" />
        </mxCell>
        <mxCell id="kRjiYqjKtC23JgH-O0qc-7" value="" style="shape=partialRectangle;connectable=1;fillColor=none;top=0;left=0;bottom=0;right=0;editable=1;overflow=hidden;whiteSpace=wrap;html=1;movable=1;resizable=1;rotatable=1;deletable=1;locked=0;" parent="kRjiYqjKtC23JgH-O0qc-6" vertex="1">
          <mxGeometry width="30" height="30" as="geometry">
            <mxRectangle width="30" height="30" as="alternateBounds" />
          </mxGeometry>
        </mxCell>
        <mxCell id="kRjiYqjKtC23JgH-O0qc-8" value="Username" style="shape=partialRectangle;connectable=1;fillColor=none;top=0;left=0;bottom=0;right=0;align=left;spacingLeft=6;overflow=hidden;whiteSpace=wrap;html=1;movable=1;resizable=1;rotatable=1;deletable=1;editable=1;locked=0;" parent="kRjiYqjKtC23JgH-O0qc-6" vertex="1">
          <mxGeometry x="30" width="150" height="30" as="geometry">
            <mxRectangle width="150" height="30" as="alternateBounds" />
          </mxGeometry>
        </mxCell>
        <mxCell id="kRjiYqjKtC23JgH-O0qc-9" value="" style="shape=tableRow;horizontal=0;startSize=0;swimlaneHead=0;swimlaneBody=0;fillColor=none;collapsible=0;dropTarget=0;points=[[0,0.5],[1,0.5]];portConstraint=eastwest;top=0;left=0;right=0;bottom=0;movable=1;resizable=1;rotatable=1;deletable=1;editable=1;locked=0;connectable=1;" parent="kRjiYqjKtC23JgH-O0qc-2" vertex="1">
          <mxGeometry y="90" width="180" height="30" as="geometry" />
        </mxCell>
        <mxCell id="kRjiYqjKtC23JgH-O0qc-10" value="" style="shape=partialRectangle;connectable=1;fillColor=none;top=0;left=0;bottom=0;right=0;editable=1;overflow=hidden;whiteSpace=wrap;html=1;movable=1;resizable=1;rotatable=1;deletable=1;locked=0;" parent="kRjiYqjKtC23JgH-O0qc-9" vertex="1">
          <mxGeometry width="30" height="30" as="geometry">
            <mxRectangle width="30" height="30" as="alternateBounds" />
          </mxGeometry>
        </mxCell>
        <mxCell id="kRjiYqjKtC23JgH-O0qc-11" value="Password" style="shape=partialRectangle;connectable=1;fillColor=none;top=0;left=0;bottom=0;right=0;align=left;spacingLeft=6;overflow=hidden;whiteSpace=wrap;html=1;movable=1;resizable=1;rotatable=1;deletable=1;editable=1;locked=0;" parent="kRjiYqjKtC23JgH-O0qc-9" vertex="1">
          <mxGeometry x="30" width="150" height="30" as="geometry">
            <mxRectangle width="150" height="30" as="alternateBounds" />
          </mxGeometry>
        </mxCell>
        <mxCell id="kRjiYqjKtC23JgH-O0qc-12" value="" style="shape=tableRow;horizontal=0;startSize=0;swimlaneHead=0;swimlaneBody=0;fillColor=none;collapsible=0;dropTarget=0;points=[[0,0.5],[1,0.5]];portConstraint=eastwest;top=0;left=0;right=0;bottom=0;movable=1;resizable=1;rotatable=1;deletable=1;editable=1;locked=0;connectable=1;" parent="kRjiYqjKtC23JgH-O0qc-2" vertex="1">
          <mxGeometry y="120" width="180" height="30" as="geometry" />
        </mxCell>
        <mxCell id="kRjiYqjKtC23JgH-O0qc-13" value="" style="shape=partialRectangle;connectable=1;fillColor=none;top=0;left=0;bottom=0;right=0;editable=1;overflow=hidden;whiteSpace=wrap;html=1;movable=1;resizable=1;rotatable=1;deletable=1;locked=0;" parent="kRjiYqjKtC23JgH-O0qc-12" vertex="1">
          <mxGeometry width="30" height="30" as="geometry">
            <mxRectangle width="30" height="30" as="alternateBounds" />
          </mxGeometry>
        </mxCell>
        <mxCell id="kRjiYqjKtC23JgH-O0qc-14" value="Role" style="shape=partialRectangle;connectable=1;fillColor=none;top=0;left=0;bottom=0;right=0;align=left;spacingLeft=6;overflow=hidden;whiteSpace=wrap;html=1;movable=1;resizable=1;rotatable=1;deletable=1;editable=1;locked=0;" parent="kRjiYqjKtC23JgH-O0qc-12" vertex="1">
          <mxGeometry x="30" width="150" height="30" as="geometry">
            <mxRectangle width="150" height="30" as="alternateBounds" />
          </mxGeometry>
        </mxCell>
        <mxCell id="kRjiYqjKtC23JgH-O0qc-50" value="" style="shape=tableRow;horizontal=0;startSize=0;swimlaneHead=0;swimlaneBody=0;fillColor=none;collapsible=0;dropTarget=0;points=[[0,0.5],[1,0.5]];portConstraint=eastwest;top=0;left=0;right=0;bottom=0;movable=1;resizable=1;rotatable=1;deletable=1;editable=1;locked=0;connectable=1;" parent="kRjiYqjKtC23JgH-O0qc-84" vertex="1">
          <mxGeometry y="150" width="180" height="30" as="geometry" />
        </mxCell>
        <mxCell id="kRjiYqjKtC23JgH-O0qc-51" value="" style="shape=partialRectangle;connectable=1;fillColor=none;top=0;left=0;bottom=0;right=0;editable=1;overflow=hidden;whiteSpace=wrap;html=1;movable=1;resizable=1;rotatable=1;deletable=1;locked=0;" parent="kRjiYqjKtC23JgH-O0qc-50" vertex="1">
          <mxGeometry width="30" height="30" as="geometry">
            <mxRectangle width="30" height="30" as="alternateBounds" />
          </mxGeometry>
        </mxCell>
        <mxCell id="kRjiYqjKtC23JgH-O0qc-52" value="WarehouseNo" style="shape=partialRectangle;connectable=1;fillColor=none;top=0;left=0;bottom=0;right=0;align=left;spacingLeft=6;overflow=hidden;whiteSpace=wrap;html=1;movable=1;resizable=1;rotatable=1;deletable=1;editable=1;locked=0;" parent="kRjiYqjKtC23JgH-O0qc-50" vertex="1">
          <mxGeometry x="30" width="150" height="30" as="geometry">
            <mxRectangle width="150" height="30" as="alternateBounds" />
          </mxGeometry>
        </mxCell>
        <mxCell id="kRjiYqjKtC23JgH-O0qc-68" value="" style="shape=tableRow;horizontal=0;startSize=0;swimlaneHead=0;swimlaneBody=0;fillColor=none;collapsible=0;dropTarget=0;points=[[0,0.5],[1,0.5]];portConstraint=eastwest;top=0;left=0;right=0;bottom=0;movable=1;resizable=1;rotatable=1;deletable=1;editable=1;locked=0;connectable=1;" parent="kRjiYqjKtC23JgH-O0qc-84" vertex="1">
          <mxGeometry y="180" width="180" height="30" as="geometry" />
        </mxCell>
        <mxCell id="kRjiYqjKtC23JgH-O0qc-69" value="" style="shape=partialRectangle;connectable=1;fillColor=none;top=0;left=0;bottom=0;right=0;editable=1;overflow=hidden;whiteSpace=wrap;html=1;movable=1;resizable=1;rotatable=1;deletable=1;locked=0;" parent="kRjiYqjKtC23JgH-O0qc-68" vertex="1">
          <mxGeometry width="30" height="30" as="geometry">
            <mxRectangle width="30" height="30" as="alternateBounds" />
          </mxGeometry>
        </mxCell>
        <mxCell id="kRjiYqjKtC23JgH-O0qc-70" value="Date_Created" style="shape=partialRectangle;connectable=1;fillColor=none;top=0;left=0;bottom=0;right=0;align=left;spacingLeft=6;overflow=hidden;whiteSpace=wrap;html=1;movable=1;resizable=1;rotatable=1;deletable=1;editable=1;locked=0;" parent="kRjiYqjKtC23JgH-O0qc-68" vertex="1">
          <mxGeometry x="30" width="150" height="30" as="geometry">
            <mxRectangle width="150" height="30" as="alternateBounds" />
          </mxGeometry>
        </mxCell>
        <mxCell id="kRjiYqjKtC23JgH-O0qc-71" value="" style="shape=tableRow;horizontal=0;startSize=0;swimlaneHead=0;swimlaneBody=0;fillColor=none;collapsible=0;dropTarget=0;points=[[0,0.5],[1,0.5]];portConstraint=eastwest;top=0;left=0;right=0;bottom=0;movable=1;resizable=1;rotatable=1;deletable=1;editable=1;locked=0;connectable=1;" parent="kRjiYqjKtC23JgH-O0qc-84" vertex="1">
          <mxGeometry y="210" width="180" height="30" as="geometry" />
        </mxCell>
        <mxCell id="kRjiYqjKtC23JgH-O0qc-72" value="" style="shape=partialRectangle;connectable=1;fillColor=none;top=0;left=0;bottom=0;right=0;editable=1;overflow=hidden;whiteSpace=wrap;html=1;movable=1;resizable=1;rotatable=1;deletable=1;locked=0;" parent="kRjiYqjKtC23JgH-O0qc-71" vertex="1">
          <mxGeometry width="30" height="30" as="geometry">
            <mxRectangle width="30" height="30" as="alternateBounds" />
          </mxGeometry>
        </mxCell>
        <mxCell id="kRjiYqjKtC23JgH-O0qc-73" value="Date_Updated" style="shape=partialRectangle;connectable=1;fillColor=none;top=0;left=0;bottom=0;right=0;align=left;spacingLeft=6;overflow=hidden;whiteSpace=wrap;html=1;movable=1;resizable=1;rotatable=1;deletable=1;editable=1;locked=0;" parent="kRjiYqjKtC23JgH-O0qc-71" vertex="1">
          <mxGeometry x="30" width="150" height="30" as="geometry">
            <mxRectangle width="150" height="30" as="alternateBounds" />
          </mxGeometry>
        </mxCell>
        <mxCell id="kRjiYqjKtC23JgH-O0qc-88" value="" style="rounded=0;orthogonalLoop=1;jettySize=auto;html=1;fontFamily=Helvetica;fontSize=12;fontColor=default;fontStyle=1;edgeStyle=orthogonalEdgeStyle;" parent="1" source="kRjiYqjKtC23JgH-O0qc-85" target="kRjiYqjKtC23JgH-O0qc-52" edge="1">
          <mxGeometry relative="1" as="geometry" />
        </mxCell>
        <mxCell id="kRjiYqjKtC23JgH-O0qc-85" value="" style="rhombus;whiteSpace=wrap;html=1;startSize=30;fontStyle=1;resizable=1;" parent="1" vertex="1">
          <mxGeometry x="390" y="290" width="80" height="80" as="geometry" />
        </mxCell>
        <mxCell id="kRjiYqjKtC23JgH-O0qc-86" value="" style="edgeStyle=orthogonalEdgeStyle;rounded=0;orthogonalLoop=1;jettySize=auto;html=1;fontFamily=Helvetica;fontSize=12;fontColor=default;fontStyle=1;exitX=0;exitY=0.5;exitDx=0;exitDy=0;" parent="1" source="kRjiYqjKtC23JgH-O0qc-56" target="kRjiYqjKtC23JgH-O0qc-85" edge="1">
          <mxGeometry relative="1" as="geometry" />
        </mxCell>
        <mxCell id="kRjiYqjKtC23JgH-O0qc-92" value="" style="group" parent="1" vertex="1" connectable="0">
          <mxGeometry x="130" y="1275" width="180" height="260" as="geometry" />
        </mxCell>
        <mxCell id="kRjiYqjKtC23JgH-O0qc-93" value="PRODUCT" style="shape=table;startSize=30;container=1;collapsible=1;childLayout=tableLayout;fixedRows=1;rowLines=0;fontStyle=1;align=center;resizeLast=1;html=1;editable=1;movable=1;resizable=1;rotatable=1;deletable=1;locked=0;connectable=1;" parent="kRjiYqjKtC23JgH-O0qc-92" vertex="1">
          <mxGeometry width="180" height="181" as="geometry">
            <mxRectangle x="70" y="70" width="70" height="30" as="alternateBounds" />
          </mxGeometry>
        </mxCell>
        <mxCell id="kRjiYqjKtC23JgH-O0qc-94" value="" style="shape=tableRow;horizontal=0;startSize=0;swimlaneHead=0;swimlaneBody=0;fillColor=none;collapsible=0;dropTarget=0;points=[[0,0.5],[1,0.5]];portConstraint=eastwest;top=0;left=0;right=0;bottom=1;movable=1;resizable=1;rotatable=1;deletable=1;editable=1;locked=0;connectable=1;" parent="kRjiYqjKtC23JgH-O0qc-93" vertex="1">
          <mxGeometry y="30" width="180" height="30" as="geometry" />
        </mxCell>
        <mxCell id="kRjiYqjKtC23JgH-O0qc-95" value="PK" style="shape=partialRectangle;connectable=1;fillColor=none;top=0;left=0;bottom=0;right=0;fontStyle=1;overflow=hidden;whiteSpace=wrap;html=1;movable=1;resizable=1;rotatable=1;deletable=1;editable=1;locked=0;" parent="kRjiYqjKtC23JgH-O0qc-94" vertex="1">
          <mxGeometry width="30" height="30" as="geometry">
            <mxRectangle width="30" height="30" as="alternateBounds" />
          </mxGeometry>
        </mxCell>
        <mxCell id="kRjiYqjKtC23JgH-O0qc-96" value="productNo" style="shape=partialRectangle;connectable=1;fillColor=none;top=0;left=0;bottom=0;right=0;align=left;spacingLeft=6;fontStyle=5;overflow=hidden;whiteSpace=wrap;html=1;movable=1;resizable=1;rotatable=1;deletable=1;editable=1;locked=0;" parent="kRjiYqjKtC23JgH-O0qc-94" vertex="1">
          <mxGeometry x="30" width="150" height="30" as="geometry">
            <mxRectangle width="150" height="30" as="alternateBounds" />
          </mxGeometry>
        </mxCell>
        <mxCell id="kRjiYqjKtC23JgH-O0qc-97" value="" style="shape=tableRow;horizontal=0;startSize=0;swimlaneHead=0;swimlaneBody=0;fillColor=none;collapsible=0;dropTarget=0;points=[[0,0.5],[1,0.5]];portConstraint=eastwest;top=0;left=0;right=0;bottom=0;movable=1;resizable=1;rotatable=1;deletable=1;editable=1;locked=0;connectable=1;" parent="kRjiYqjKtC23JgH-O0qc-93" vertex="1">
          <mxGeometry y="60" width="180" height="30" as="geometry" />
        </mxCell>
        <mxCell id="kRjiYqjKtC23JgH-O0qc-98" value="" style="shape=partialRectangle;connectable=1;fillColor=none;top=0;left=0;bottom=0;right=0;editable=1;overflow=hidden;whiteSpace=wrap;html=1;movable=1;resizable=1;rotatable=1;deletable=1;locked=0;" parent="kRjiYqjKtC23JgH-O0qc-97" vertex="1">
          <mxGeometry width="30" height="30" as="geometry">
            <mxRectangle width="30" height="30" as="alternateBounds" />
          </mxGeometry>
        </mxCell>
        <mxCell id="kRjiYqjKtC23JgH-O0qc-99" value="Description" style="shape=partialRectangle;connectable=1;fillColor=none;top=0;left=0;bottom=0;right=0;align=left;spacingLeft=6;overflow=hidden;whiteSpace=wrap;html=1;movable=1;resizable=1;rotatable=1;deletable=1;editable=1;locked=0;" parent="kRjiYqjKtC23JgH-O0qc-97" vertex="1">
          <mxGeometry x="30" width="150" height="30" as="geometry">
            <mxRectangle width="150" height="30" as="alternateBounds" />
          </mxGeometry>
        </mxCell>
        <mxCell id="0lMo_0fp5MmPzG-Lthvi-47" value="" style="shape=tableRow;horizontal=0;startSize=0;swimlaneHead=0;swimlaneBody=0;fillColor=none;collapsible=0;dropTarget=0;points=[[0,0.5],[1,0.5]];portConstraint=eastwest;top=0;left=0;right=0;bottom=0;movable=1;resizable=1;rotatable=1;deletable=1;editable=1;locked=0;connectable=1;" vertex="1" parent="kRjiYqjKtC23JgH-O0qc-93">
          <mxGeometry y="90" width="180" height="31" as="geometry" />
        </mxCell>
        <mxCell id="0lMo_0fp5MmPzG-Lthvi-48" value="" style="shape=partialRectangle;connectable=1;fillColor=none;top=0;left=0;bottom=0;right=0;editable=1;overflow=hidden;whiteSpace=wrap;html=1;movable=1;resizable=1;rotatable=1;deletable=1;locked=0;" vertex="1" parent="0lMo_0fp5MmPzG-Lthvi-47">
          <mxGeometry width="30" height="31" as="geometry">
            <mxRectangle width="30" height="31" as="alternateBounds" />
          </mxGeometry>
        </mxCell>
        <mxCell id="0lMo_0fp5MmPzG-Lthvi-49" value="Qty" style="shape=partialRectangle;connectable=1;fillColor=none;top=0;left=0;bottom=0;right=0;align=left;spacingLeft=6;overflow=hidden;whiteSpace=wrap;html=1;movable=1;resizable=1;rotatable=1;deletable=1;editable=1;locked=0;" vertex="1" parent="0lMo_0fp5MmPzG-Lthvi-47">
          <mxGeometry x="30" width="150" height="31" as="geometry">
            <mxRectangle width="150" height="31" as="alternateBounds" />
          </mxGeometry>
        </mxCell>
        <mxCell id="0lMo_0fp5MmPzG-Lthvi-50" value="" style="shape=tableRow;horizontal=0;startSize=0;swimlaneHead=0;swimlaneBody=0;fillColor=none;collapsible=0;dropTarget=0;points=[[0,0.5],[1,0.5]];portConstraint=eastwest;top=0;left=0;right=0;bottom=0;movable=1;resizable=1;rotatable=1;deletable=1;editable=1;locked=0;connectable=1;" vertex="1" parent="kRjiYqjKtC23JgH-O0qc-93">
          <mxGeometry y="121" width="180" height="30" as="geometry" />
        </mxCell>
        <mxCell id="0lMo_0fp5MmPzG-Lthvi-51" value="" style="shape=partialRectangle;connectable=1;fillColor=none;top=0;left=0;bottom=0;right=0;editable=1;overflow=hidden;whiteSpace=wrap;html=1;movable=1;resizable=1;rotatable=1;deletable=1;locked=0;" vertex="1" parent="0lMo_0fp5MmPzG-Lthvi-50">
          <mxGeometry width="30" height="30" as="geometry">
            <mxRectangle width="30" height="30" as="alternateBounds" />
          </mxGeometry>
        </mxCell>
        <mxCell id="0lMo_0fp5MmPzG-Lthvi-52" value="Date_Created" style="shape=partialRectangle;connectable=1;fillColor=none;top=0;left=0;bottom=0;right=0;align=left;spacingLeft=6;overflow=hidden;whiteSpace=wrap;html=1;movable=1;resizable=1;rotatable=1;deletable=1;editable=1;locked=0;" vertex="1" parent="0lMo_0fp5MmPzG-Lthvi-50">
          <mxGeometry x="30" width="150" height="30" as="geometry">
            <mxRectangle width="150" height="30" as="alternateBounds" />
          </mxGeometry>
        </mxCell>
        <mxCell id="0lMo_0fp5MmPzG-Lthvi-53" value="" style="shape=tableRow;horizontal=0;startSize=0;swimlaneHead=0;swimlaneBody=0;fillColor=none;collapsible=0;dropTarget=0;points=[[0,0.5],[1,0.5]];portConstraint=eastwest;top=0;left=0;right=0;bottom=0;movable=1;resizable=1;rotatable=1;deletable=1;editable=1;locked=0;connectable=1;" vertex="1" parent="kRjiYqjKtC23JgH-O0qc-93">
          <mxGeometry y="151" width="180" height="30" as="geometry" />
        </mxCell>
        <mxCell id="0lMo_0fp5MmPzG-Lthvi-54" value="" style="shape=partialRectangle;connectable=1;fillColor=none;top=0;left=0;bottom=0;right=0;editable=1;overflow=hidden;whiteSpace=wrap;html=1;movable=1;resizable=1;rotatable=1;deletable=1;locked=0;" vertex="1" parent="0lMo_0fp5MmPzG-Lthvi-53">
          <mxGeometry width="30" height="30" as="geometry">
            <mxRectangle width="30" height="30" as="alternateBounds" />
          </mxGeometry>
        </mxCell>
        <mxCell id="0lMo_0fp5MmPzG-Lthvi-55" value="Date_Updated" style="shape=partialRectangle;connectable=1;fillColor=none;top=0;left=0;bottom=0;right=0;align=left;spacingLeft=6;overflow=hidden;whiteSpace=wrap;html=1;movable=1;resizable=1;rotatable=1;deletable=1;editable=1;locked=0;" vertex="1" parent="0lMo_0fp5MmPzG-Lthvi-53">
          <mxGeometry x="30" width="150" height="30" as="geometry">
            <mxRectangle width="150" height="30" as="alternateBounds" />
          </mxGeometry>
        </mxCell>
        <mxCell id="kRjiYqjKtC23JgH-O0qc-106" value="" style="shape=tableRow;horizontal=0;startSize=0;swimlaneHead=0;swimlaneBody=0;fillColor=none;collapsible=0;dropTarget=0;points=[[0,0.5],[1,0.5]];portConstraint=eastwest;top=0;left=0;right=0;bottom=0;movable=1;resizable=1;rotatable=1;deletable=1;editable=1;locked=0;connectable=1;" parent="kRjiYqjKtC23JgH-O0qc-92" vertex="1">
          <mxGeometry y="150" width="180" height="30" as="geometry" />
        </mxCell>
        <mxCell id="kRjiYqjKtC23JgH-O0qc-107" value="" style="shape=partialRectangle;connectable=1;fillColor=none;top=0;left=0;bottom=0;right=0;editable=1;overflow=hidden;whiteSpace=wrap;html=1;movable=1;resizable=1;rotatable=1;deletable=1;locked=0;" parent="kRjiYqjKtC23JgH-O0qc-106" vertex="1">
          <mxGeometry width="30" height="30" as="geometry">
            <mxRectangle width="30" height="30" as="alternateBounds" />
          </mxGeometry>
        </mxCell>
        <mxCell id="kRjiYqjKtC23JgH-O0qc-115" value="" style="group" parent="1" vertex="1" connectable="0">
          <mxGeometry x="950" y="1139" width="180" height="261" as="geometry" />
        </mxCell>
        <mxCell id="kRjiYqjKtC23JgH-O0qc-116" value="MATERIALS" style="shape=table;startSize=30;container=1;collapsible=1;childLayout=tableLayout;fixedRows=1;rowLines=0;fontStyle=1;align=center;resizeLast=1;html=1;editable=1;movable=1;resizable=1;rotatable=1;deletable=1;locked=0;connectable=1;" parent="kRjiYqjKtC23JgH-O0qc-115" vertex="1">
          <mxGeometry width="180" height="300" as="geometry">
            <mxRectangle x="70" y="70" width="70" height="30" as="alternateBounds" />
          </mxGeometry>
        </mxCell>
        <mxCell id="kRjiYqjKtC23JgH-O0qc-117" value="" style="shape=tableRow;horizontal=0;startSize=0;swimlaneHead=0;swimlaneBody=0;fillColor=none;collapsible=0;dropTarget=0;points=[[0,0.5],[1,0.5]];portConstraint=eastwest;top=0;left=0;right=0;bottom=1;movable=1;resizable=1;rotatable=1;deletable=1;editable=1;locked=0;connectable=1;" parent="kRjiYqjKtC23JgH-O0qc-116" vertex="1">
          <mxGeometry y="30" width="180" height="30" as="geometry" />
        </mxCell>
        <mxCell id="kRjiYqjKtC23JgH-O0qc-118" value="PK" style="shape=partialRectangle;connectable=1;fillColor=none;top=0;left=0;bottom=0;right=0;fontStyle=1;overflow=hidden;whiteSpace=wrap;html=1;movable=1;resizable=1;rotatable=1;deletable=1;editable=1;locked=0;" parent="kRjiYqjKtC23JgH-O0qc-117" vertex="1">
          <mxGeometry width="30" height="30" as="geometry">
            <mxRectangle width="30" height="30" as="alternateBounds" />
          </mxGeometry>
        </mxCell>
        <mxCell id="kRjiYqjKtC23JgH-O0qc-119" value="itemNo" style="shape=partialRectangle;connectable=1;fillColor=none;top=0;left=0;bottom=0;right=0;align=left;spacingLeft=6;fontStyle=5;overflow=hidden;whiteSpace=wrap;html=1;movable=1;resizable=1;rotatable=1;deletable=1;editable=1;locked=0;" parent="kRjiYqjKtC23JgH-O0qc-117" vertex="1">
          <mxGeometry x="30" width="150" height="30" as="geometry">
            <mxRectangle width="150" height="30" as="alternateBounds" />
          </mxGeometry>
        </mxCell>
        <mxCell id="kRjiYqjKtC23JgH-O0qc-120" value="" style="shape=tableRow;horizontal=0;startSize=0;swimlaneHead=0;swimlaneBody=0;fillColor=none;collapsible=0;dropTarget=0;points=[[0,0.5],[1,0.5]];portConstraint=eastwest;top=0;left=0;right=0;bottom=0;movable=1;resizable=1;rotatable=1;deletable=1;editable=1;locked=0;connectable=1;" parent="kRjiYqjKtC23JgH-O0qc-116" vertex="1">
          <mxGeometry y="60" width="180" height="30" as="geometry" />
        </mxCell>
        <mxCell id="kRjiYqjKtC23JgH-O0qc-121" value="" style="shape=partialRectangle;connectable=1;fillColor=none;top=0;left=0;bottom=0;right=0;editable=1;overflow=hidden;whiteSpace=wrap;html=1;movable=1;resizable=1;rotatable=1;deletable=1;locked=0;" parent="kRjiYqjKtC23JgH-O0qc-120" vertex="1">
          <mxGeometry width="30" height="30" as="geometry">
            <mxRectangle width="30" height="30" as="alternateBounds" />
          </mxGeometry>
        </mxCell>
        <mxCell id="kRjiYqjKtC23JgH-O0qc-122" value="Description" style="shape=partialRectangle;connectable=1;fillColor=none;top=0;left=0;bottom=0;right=0;align=left;spacingLeft=6;overflow=hidden;whiteSpace=wrap;html=1;movable=1;resizable=1;rotatable=1;deletable=1;editable=1;locked=0;" parent="kRjiYqjKtC23JgH-O0qc-120" vertex="1">
          <mxGeometry x="30" width="150" height="30" as="geometry">
            <mxRectangle width="150" height="30" as="alternateBounds" />
          </mxGeometry>
        </mxCell>
        <mxCell id="kRjiYqjKtC23JgH-O0qc-123" value="" style="shape=tableRow;horizontal=0;startSize=0;swimlaneHead=0;swimlaneBody=0;fillColor=none;collapsible=0;dropTarget=0;points=[[0,0.5],[1,0.5]];portConstraint=eastwest;top=0;left=0;right=0;bottom=0;movable=1;resizable=1;rotatable=1;deletable=1;editable=1;locked=0;connectable=1;" parent="kRjiYqjKtC23JgH-O0qc-116" vertex="1">
          <mxGeometry y="90" width="180" height="30" as="geometry" />
        </mxCell>
        <mxCell id="kRjiYqjKtC23JgH-O0qc-124" value="" style="shape=partialRectangle;connectable=1;fillColor=none;top=0;left=0;bottom=0;right=0;editable=1;overflow=hidden;whiteSpace=wrap;html=1;movable=1;resizable=1;rotatable=1;deletable=1;locked=0;" parent="kRjiYqjKtC23JgH-O0qc-123" vertex="1">
          <mxGeometry width="30" height="30" as="geometry">
            <mxRectangle width="30" height="30" as="alternateBounds" />
          </mxGeometry>
        </mxCell>
        <mxCell id="kRjiYqjKtC23JgH-O0qc-125" value="Category" style="shape=partialRectangle;connectable=1;fillColor=none;top=0;left=0;bottom=0;right=0;align=left;spacingLeft=6;overflow=hidden;whiteSpace=wrap;html=1;movable=1;resizable=1;rotatable=1;deletable=1;editable=1;locked=0;" parent="kRjiYqjKtC23JgH-O0qc-123" vertex="1">
          <mxGeometry x="30" width="150" height="30" as="geometry">
            <mxRectangle width="150" height="30" as="alternateBounds" />
          </mxGeometry>
        </mxCell>
        <mxCell id="kRjiYqjKtC23JgH-O0qc-126" value="" style="shape=tableRow;horizontal=0;startSize=0;swimlaneHead=0;swimlaneBody=0;fillColor=none;collapsible=0;dropTarget=0;points=[[0,0.5],[1,0.5]];portConstraint=eastwest;top=0;left=0;right=0;bottom=0;movable=1;resizable=1;rotatable=1;deletable=1;editable=1;locked=0;connectable=1;" parent="kRjiYqjKtC23JgH-O0qc-116" vertex="1">
          <mxGeometry y="120" width="180" height="30" as="geometry" />
        </mxCell>
        <mxCell id="kRjiYqjKtC23JgH-O0qc-127" value="" style="shape=partialRectangle;connectable=1;fillColor=none;top=0;left=0;bottom=0;right=0;editable=1;overflow=hidden;whiteSpace=wrap;html=1;movable=1;resizable=1;rotatable=1;deletable=1;locked=0;" parent="kRjiYqjKtC23JgH-O0qc-126" vertex="1">
          <mxGeometry width="30" height="30" as="geometry">
            <mxRectangle width="30" height="30" as="alternateBounds" />
          </mxGeometry>
        </mxCell>
        <mxCell id="kRjiYqjKtC23JgH-O0qc-128" value="SU&lt;span style=&quot;background-color: initial;&quot;&gt;nit&lt;/span&gt;" style="shape=partialRectangle;connectable=1;fillColor=none;top=0;left=0;bottom=0;right=0;align=left;spacingLeft=6;overflow=hidden;whiteSpace=wrap;html=1;movable=1;resizable=1;rotatable=1;deletable=1;editable=1;locked=0;" parent="kRjiYqjKtC23JgH-O0qc-126" vertex="1">
          <mxGeometry x="30" width="150" height="30" as="geometry">
            <mxRectangle width="150" height="30" as="alternateBounds" />
          </mxGeometry>
        </mxCell>
        <mxCell id="0lMo_0fp5MmPzG-Lthvi-30" value="" style="shape=tableRow;horizontal=0;startSize=0;swimlaneHead=0;swimlaneBody=0;fillColor=none;collapsible=0;dropTarget=0;points=[[0,0.5],[1,0.5]];portConstraint=eastwest;top=0;left=0;right=0;bottom=0;movable=1;resizable=1;rotatable=1;deletable=1;editable=1;locked=0;connectable=1;" vertex="1" parent="kRjiYqjKtC23JgH-O0qc-116">
          <mxGeometry y="150" width="180" height="30" as="geometry" />
        </mxCell>
        <mxCell id="0lMo_0fp5MmPzG-Lthvi-31" value="" style="shape=partialRectangle;connectable=1;fillColor=none;top=0;left=0;bottom=0;right=0;editable=1;overflow=hidden;whiteSpace=wrap;html=1;movable=1;resizable=1;rotatable=1;deletable=1;locked=0;" vertex="1" parent="0lMo_0fp5MmPzG-Lthvi-30">
          <mxGeometry width="30" height="30" as="geometry">
            <mxRectangle width="30" height="30" as="alternateBounds" />
          </mxGeometry>
        </mxCell>
        <mxCell id="0lMo_0fp5MmPzG-Lthvi-32" value="BUnit" style="shape=partialRectangle;connectable=1;fillColor=none;top=0;left=0;bottom=0;right=0;align=left;spacingLeft=6;overflow=hidden;whiteSpace=wrap;html=1;movable=1;resizable=1;rotatable=1;deletable=1;editable=1;locked=0;" vertex="1" parent="0lMo_0fp5MmPzG-Lthvi-30">
          <mxGeometry x="30" width="150" height="30" as="geometry">
            <mxRectangle width="150" height="30" as="alternateBounds" />
          </mxGeometry>
        </mxCell>
        <mxCell id="0lMo_0fp5MmPzG-Lthvi-33" value="" style="shape=tableRow;horizontal=0;startSize=0;swimlaneHead=0;swimlaneBody=0;fillColor=none;collapsible=0;dropTarget=0;points=[[0,0.5],[1,0.5]];portConstraint=eastwest;top=0;left=0;right=0;bottom=0;movable=1;resizable=1;rotatable=1;deletable=1;editable=1;locked=0;connectable=1;" vertex="1" parent="kRjiYqjKtC23JgH-O0qc-116">
          <mxGeometry y="180" width="180" height="30" as="geometry" />
        </mxCell>
        <mxCell id="0lMo_0fp5MmPzG-Lthvi-34" value="" style="shape=partialRectangle;connectable=1;fillColor=none;top=0;left=0;bottom=0;right=0;editable=1;overflow=hidden;whiteSpace=wrap;html=1;movable=1;resizable=1;rotatable=1;deletable=1;locked=0;" vertex="1" parent="0lMo_0fp5MmPzG-Lthvi-33">
          <mxGeometry width="30" height="30" as="geometry">
            <mxRectangle width="30" height="30" as="alternateBounds" />
          </mxGeometry>
        </mxCell>
        <mxCell id="0lMo_0fp5MmPzG-Lthvi-35" value="Qty" style="shape=partialRectangle;connectable=1;fillColor=none;top=0;left=0;bottom=0;right=0;align=left;spacingLeft=6;overflow=hidden;whiteSpace=wrap;html=1;movable=1;resizable=1;rotatable=1;deletable=1;editable=1;locked=0;" vertex="1" parent="0lMo_0fp5MmPzG-Lthvi-33">
          <mxGeometry x="30" width="150" height="30" as="geometry">
            <mxRectangle width="150" height="30" as="alternateBounds" />
          </mxGeometry>
        </mxCell>
        <mxCell id="0lMo_0fp5MmPzG-Lthvi-40" value="" style="shape=tableRow;horizontal=0;startSize=0;swimlaneHead=0;swimlaneBody=0;fillColor=none;collapsible=0;dropTarget=0;points=[[0,0.5],[1,0.5]];portConstraint=eastwest;top=0;left=0;right=0;bottom=0;movable=1;resizable=1;rotatable=1;deletable=1;editable=1;locked=0;connectable=1;" vertex="1" parent="kRjiYqjKtC23JgH-O0qc-116">
          <mxGeometry y="210" width="180" height="30" as="geometry" />
        </mxCell>
        <mxCell id="0lMo_0fp5MmPzG-Lthvi-41" value="" style="shape=partialRectangle;connectable=1;fillColor=none;top=0;left=0;bottom=0;right=0;editable=1;overflow=hidden;whiteSpace=wrap;html=1;movable=1;resizable=1;rotatable=1;deletable=1;locked=0;" vertex="1" parent="0lMo_0fp5MmPzG-Lthvi-40">
          <mxGeometry width="30" height="30" as="geometry">
            <mxRectangle width="30" height="30" as="alternateBounds" />
          </mxGeometry>
        </mxCell>
        <mxCell id="0lMo_0fp5MmPzG-Lthvi-42" value="&lt;b&gt;&lt;font color=&quot;#007fff&quot;&gt;WarehouseNo&lt;/font&gt;&lt;/b&gt;" style="shape=partialRectangle;connectable=1;fillColor=none;top=0;left=0;bottom=0;right=0;align=left;spacingLeft=6;overflow=hidden;whiteSpace=wrap;html=1;movable=1;resizable=1;rotatable=1;deletable=1;editable=1;locked=0;" vertex="1" parent="0lMo_0fp5MmPzG-Lthvi-40">
          <mxGeometry x="30" width="150" height="30" as="geometry">
            <mxRectangle width="150" height="30" as="alternateBounds" />
          </mxGeometry>
        </mxCell>
        <mxCell id="0lMo_0fp5MmPzG-Lthvi-56" value="" style="shape=tableRow;horizontal=0;startSize=0;swimlaneHead=0;swimlaneBody=0;fillColor=none;collapsible=0;dropTarget=0;points=[[0,0.5],[1,0.5]];portConstraint=eastwest;top=0;left=0;right=0;bottom=0;movable=1;resizable=1;rotatable=1;deletable=1;editable=1;locked=0;connectable=1;" vertex="1" parent="kRjiYqjKtC23JgH-O0qc-116">
          <mxGeometry y="240" width="180" height="30" as="geometry" />
        </mxCell>
        <mxCell id="0lMo_0fp5MmPzG-Lthvi-57" value="" style="shape=partialRectangle;connectable=1;fillColor=none;top=0;left=0;bottom=0;right=0;editable=1;overflow=hidden;whiteSpace=wrap;html=1;movable=1;resizable=1;rotatable=1;deletable=1;locked=0;" vertex="1" parent="0lMo_0fp5MmPzG-Lthvi-56">
          <mxGeometry width="30" height="30" as="geometry">
            <mxRectangle width="30" height="30" as="alternateBounds" />
          </mxGeometry>
        </mxCell>
        <mxCell id="0lMo_0fp5MmPzG-Lthvi-58" value="Date_Created" style="shape=partialRectangle;connectable=1;fillColor=none;top=0;left=0;bottom=0;right=0;align=left;spacingLeft=6;overflow=hidden;whiteSpace=wrap;html=1;movable=1;resizable=1;rotatable=1;deletable=1;editable=1;locked=0;" vertex="1" parent="0lMo_0fp5MmPzG-Lthvi-56">
          <mxGeometry x="30" width="150" height="30" as="geometry">
            <mxRectangle width="150" height="30" as="alternateBounds" />
          </mxGeometry>
        </mxCell>
        <mxCell id="0lMo_0fp5MmPzG-Lthvi-59" value="" style="shape=tableRow;horizontal=0;startSize=0;swimlaneHead=0;swimlaneBody=0;fillColor=none;collapsible=0;dropTarget=0;points=[[0,0.5],[1,0.5]];portConstraint=eastwest;top=0;left=0;right=0;bottom=0;movable=1;resizable=1;rotatable=1;deletable=1;editable=1;locked=0;connectable=1;" vertex="1" parent="kRjiYqjKtC23JgH-O0qc-116">
          <mxGeometry y="270" width="180" height="30" as="geometry" />
        </mxCell>
        <mxCell id="0lMo_0fp5MmPzG-Lthvi-60" value="" style="shape=partialRectangle;connectable=1;fillColor=none;top=0;left=0;bottom=0;right=0;editable=1;overflow=hidden;whiteSpace=wrap;html=1;movable=1;resizable=1;rotatable=1;deletable=1;locked=0;" vertex="1" parent="0lMo_0fp5MmPzG-Lthvi-59">
          <mxGeometry width="30" height="30" as="geometry">
            <mxRectangle width="30" height="30" as="alternateBounds" />
          </mxGeometry>
        </mxCell>
        <mxCell id="0lMo_0fp5MmPzG-Lthvi-61" value="Date_Update" style="shape=partialRectangle;connectable=1;fillColor=none;top=0;left=0;bottom=0;right=0;align=left;spacingLeft=6;overflow=hidden;whiteSpace=wrap;html=1;movable=1;resizable=1;rotatable=1;deletable=1;editable=1;locked=0;" vertex="1" parent="0lMo_0fp5MmPzG-Lthvi-59">
          <mxGeometry x="30" width="150" height="30" as="geometry">
            <mxRectangle width="150" height="30" as="alternateBounds" />
          </mxGeometry>
        </mxCell>
        <mxCell id="kRjiYqjKtC23JgH-O0qc-139" value="" style="group" parent="1" vertex="1" connectable="0">
          <mxGeometry x="550" y="1139" width="180" height="211" as="geometry" />
        </mxCell>
        <mxCell id="kRjiYqjKtC23JgH-O0qc-140" value="PRODUCTIONS" style="shape=table;startSize=30;container=1;collapsible=1;childLayout=tableLayout;fixedRows=1;rowLines=0;fontStyle=1;align=center;resizeLast=1;html=1;editable=1;movable=1;resizable=1;rotatable=1;deletable=1;locked=0;connectable=1;" parent="kRjiYqjKtC23JgH-O0qc-139" vertex="1">
          <mxGeometry width="180" height="210" as="geometry">
            <mxRectangle x="70" y="70" width="70" height="30" as="alternateBounds" />
          </mxGeometry>
        </mxCell>
        <mxCell id="kRjiYqjKtC23JgH-O0qc-141" value="" style="shape=tableRow;horizontal=0;startSize=0;swimlaneHead=0;swimlaneBody=0;fillColor=none;collapsible=0;dropTarget=0;points=[[0,0.5],[1,0.5]];portConstraint=eastwest;top=0;left=0;right=0;bottom=1;movable=1;resizable=1;rotatable=1;deletable=1;editable=1;locked=0;connectable=1;" parent="kRjiYqjKtC23JgH-O0qc-140" vertex="1">
          <mxGeometry y="30" width="180" height="30" as="geometry" />
        </mxCell>
        <mxCell id="kRjiYqjKtC23JgH-O0qc-142" value="PK" style="shape=partialRectangle;connectable=1;fillColor=none;top=0;left=0;bottom=0;right=0;fontStyle=1;overflow=hidden;whiteSpace=wrap;html=1;movable=1;resizable=1;rotatable=1;deletable=1;editable=1;locked=0;" parent="kRjiYqjKtC23JgH-O0qc-141" vertex="1">
          <mxGeometry width="30" height="30" as="geometry">
            <mxRectangle width="30" height="30" as="alternateBounds" />
          </mxGeometry>
        </mxCell>
        <mxCell id="kRjiYqjKtC23JgH-O0qc-143" value="ID" style="shape=partialRectangle;connectable=1;fillColor=none;top=0;left=0;bottom=0;right=0;align=left;spacingLeft=6;fontStyle=5;overflow=hidden;whiteSpace=wrap;html=1;movable=1;resizable=1;rotatable=1;deletable=1;editable=1;locked=0;" parent="kRjiYqjKtC23JgH-O0qc-141" vertex="1">
          <mxGeometry x="30" width="150" height="30" as="geometry">
            <mxRectangle width="150" height="30" as="alternateBounds" />
          </mxGeometry>
        </mxCell>
        <mxCell id="kRjiYqjKtC23JgH-O0qc-144" value="" style="shape=tableRow;horizontal=0;startSize=0;swimlaneHead=0;swimlaneBody=0;fillColor=none;collapsible=0;dropTarget=0;points=[[0,0.5],[1,0.5]];portConstraint=eastwest;top=0;left=0;right=0;bottom=0;movable=1;resizable=1;rotatable=1;deletable=1;editable=1;locked=0;connectable=1;" parent="kRjiYqjKtC23JgH-O0qc-140" vertex="1">
          <mxGeometry y="60" width="180" height="30" as="geometry" />
        </mxCell>
        <mxCell id="kRjiYqjKtC23JgH-O0qc-145" value="FK" style="shape=partialRectangle;connectable=1;fillColor=none;top=0;left=0;bottom=0;right=0;editable=1;overflow=hidden;whiteSpace=wrap;html=1;movable=1;resizable=1;rotatable=1;deletable=1;locked=0;" parent="kRjiYqjKtC23JgH-O0qc-144" vertex="1">
          <mxGeometry width="30" height="30" as="geometry">
            <mxRectangle width="30" height="30" as="alternateBounds" />
          </mxGeometry>
        </mxCell>
        <mxCell id="kRjiYqjKtC23JgH-O0qc-146" value="&lt;b&gt;&lt;font color=&quot;#007fff&quot;&gt;ProductNo&lt;/font&gt;&lt;/b&gt;" style="shape=partialRectangle;connectable=1;fillColor=none;top=0;left=0;bottom=0;right=0;align=left;spacingLeft=6;overflow=hidden;whiteSpace=wrap;html=1;movable=1;resizable=1;rotatable=1;deletable=1;editable=1;locked=0;" parent="kRjiYqjKtC23JgH-O0qc-144" vertex="1">
          <mxGeometry x="30" width="150" height="30" as="geometry">
            <mxRectangle width="150" height="30" as="alternateBounds" />
          </mxGeometry>
        </mxCell>
        <mxCell id="kRjiYqjKtC23JgH-O0qc-147" value="" style="shape=tableRow;horizontal=0;startSize=0;swimlaneHead=0;swimlaneBody=0;fillColor=none;collapsible=0;dropTarget=0;points=[[0,0.5],[1,0.5]];portConstraint=eastwest;top=0;left=0;right=0;bottom=0;movable=1;resizable=1;rotatable=1;deletable=1;editable=1;locked=0;connectable=1;" parent="kRjiYqjKtC23JgH-O0qc-140" vertex="1">
          <mxGeometry y="90" width="180" height="30" as="geometry" />
        </mxCell>
        <mxCell id="kRjiYqjKtC23JgH-O0qc-148" value="FK" style="shape=partialRectangle;connectable=1;fillColor=none;top=0;left=0;bottom=0;right=0;editable=1;overflow=hidden;whiteSpace=wrap;html=1;movable=1;resizable=1;rotatable=1;deletable=1;locked=0;" parent="kRjiYqjKtC23JgH-O0qc-147" vertex="1">
          <mxGeometry width="30" height="30" as="geometry">
            <mxRectangle width="30" height="30" as="alternateBounds" />
          </mxGeometry>
        </mxCell>
        <mxCell id="kRjiYqjKtC23JgH-O0qc-149" value="&lt;font color=&quot;#007fff&quot;&gt;&lt;b&gt;ItemNo&lt;/b&gt;&lt;/font&gt;" style="shape=partialRectangle;connectable=1;fillColor=none;top=0;left=0;bottom=0;right=0;align=left;spacingLeft=6;overflow=hidden;whiteSpace=wrap;html=1;movable=1;resizable=1;rotatable=1;deletable=1;editable=1;locked=0;" parent="kRjiYqjKtC23JgH-O0qc-147" vertex="1">
          <mxGeometry x="30" width="150" height="30" as="geometry">
            <mxRectangle width="150" height="30" as="alternateBounds" />
          </mxGeometry>
        </mxCell>
        <mxCell id="0lMo_0fp5MmPzG-Lthvi-12" value="" style="shape=tableRow;horizontal=0;startSize=0;swimlaneHead=0;swimlaneBody=0;fillColor=none;collapsible=0;dropTarget=0;points=[[0,0.5],[1,0.5]];portConstraint=eastwest;top=0;left=0;right=0;bottom=0;movable=1;resizable=1;rotatable=1;deletable=1;editable=1;locked=0;connectable=1;" vertex="1" parent="kRjiYqjKtC23JgH-O0qc-140">
          <mxGeometry y="120" width="180" height="30" as="geometry" />
        </mxCell>
        <mxCell id="0lMo_0fp5MmPzG-Lthvi-13" value="FK" style="shape=partialRectangle;connectable=1;fillColor=none;top=0;left=0;bottom=0;right=0;editable=1;overflow=hidden;whiteSpace=wrap;html=1;movable=1;resizable=1;rotatable=1;deletable=1;locked=0;" vertex="1" parent="0lMo_0fp5MmPzG-Lthvi-12">
          <mxGeometry width="30" height="30" as="geometry">
            <mxRectangle width="30" height="30" as="alternateBounds" />
          </mxGeometry>
        </mxCell>
        <mxCell id="0lMo_0fp5MmPzG-Lthvi-14" value="Qty" style="shape=partialRectangle;connectable=1;fillColor=none;top=0;left=0;bottom=0;right=0;align=left;spacingLeft=6;overflow=hidden;whiteSpace=wrap;html=1;movable=1;resizable=1;rotatable=1;deletable=1;editable=1;locked=0;" vertex="1" parent="0lMo_0fp5MmPzG-Lthvi-12">
          <mxGeometry x="30" width="150" height="30" as="geometry">
            <mxRectangle width="150" height="30" as="alternateBounds" />
          </mxGeometry>
        </mxCell>
        <mxCell id="0lMo_0fp5MmPzG-Lthvi-21" value="" style="shape=tableRow;horizontal=0;startSize=0;swimlaneHead=0;swimlaneBody=0;fillColor=none;collapsible=0;dropTarget=0;points=[[0,0.5],[1,0.5]];portConstraint=eastwest;top=0;left=0;right=0;bottom=0;movable=1;resizable=1;rotatable=1;deletable=1;editable=1;locked=0;connectable=1;" vertex="1" parent="kRjiYqjKtC23JgH-O0qc-140">
          <mxGeometry y="150" width="180" height="30" as="geometry" />
        </mxCell>
        <mxCell id="0lMo_0fp5MmPzG-Lthvi-22" value="FK" style="shape=partialRectangle;connectable=1;fillColor=none;top=0;left=0;bottom=0;right=0;editable=1;overflow=hidden;whiteSpace=wrap;html=1;movable=1;resizable=1;rotatable=1;deletable=1;locked=0;" vertex="1" parent="0lMo_0fp5MmPzG-Lthvi-21">
          <mxGeometry width="30" height="30" as="geometry">
            <mxRectangle width="30" height="30" as="alternateBounds" />
          </mxGeometry>
        </mxCell>
        <mxCell id="0lMo_0fp5MmPzG-Lthvi-23" value="Date_Created" style="shape=partialRectangle;connectable=1;fillColor=none;top=0;left=0;bottom=0;right=0;align=left;spacingLeft=6;overflow=hidden;whiteSpace=wrap;html=1;movable=1;resizable=1;rotatable=1;deletable=1;editable=1;locked=0;" vertex="1" parent="0lMo_0fp5MmPzG-Lthvi-21">
          <mxGeometry x="30" width="150" height="30" as="geometry">
            <mxRectangle width="150" height="30" as="alternateBounds" />
          </mxGeometry>
        </mxCell>
        <mxCell id="0lMo_0fp5MmPzG-Lthvi-27" value="" style="shape=tableRow;horizontal=0;startSize=0;swimlaneHead=0;swimlaneBody=0;fillColor=none;collapsible=0;dropTarget=0;points=[[0,0.5],[1,0.5]];portConstraint=eastwest;top=0;left=0;right=0;bottom=0;movable=1;resizable=1;rotatable=1;deletable=1;editable=1;locked=0;connectable=1;" vertex="1" parent="kRjiYqjKtC23JgH-O0qc-140">
          <mxGeometry y="180" width="180" height="30" as="geometry" />
        </mxCell>
        <mxCell id="0lMo_0fp5MmPzG-Lthvi-28" value="FK" style="shape=partialRectangle;connectable=1;fillColor=none;top=0;left=0;bottom=0;right=0;editable=1;overflow=hidden;whiteSpace=wrap;html=1;movable=1;resizable=1;rotatable=1;deletable=1;locked=0;" vertex="1" parent="0lMo_0fp5MmPzG-Lthvi-27">
          <mxGeometry width="30" height="30" as="geometry">
            <mxRectangle width="30" height="30" as="alternateBounds" />
          </mxGeometry>
        </mxCell>
        <mxCell id="0lMo_0fp5MmPzG-Lthvi-29" value="Date_Update" style="shape=partialRectangle;connectable=1;fillColor=none;top=0;left=0;bottom=0;right=0;align=left;spacingLeft=6;overflow=hidden;whiteSpace=wrap;html=1;movable=1;resizable=1;rotatable=1;deletable=1;editable=1;locked=0;" vertex="1" parent="0lMo_0fp5MmPzG-Lthvi-27">
          <mxGeometry x="30" width="150" height="30" as="geometry">
            <mxRectangle width="150" height="30" as="alternateBounds" />
          </mxGeometry>
        </mxCell>
        <mxCell id="kRjiYqjKtC23JgH-O0qc-153" value="" style="shape=tableRow;horizontal=0;startSize=0;swimlaneHead=0;swimlaneBody=0;fillColor=none;collapsible=0;dropTarget=0;points=[[0,0.5],[1,0.5]];portConstraint=eastwest;top=0;left=0;right=0;bottom=0;movable=1;resizable=1;rotatable=1;deletable=1;editable=1;locked=0;connectable=1;" parent="kRjiYqjKtC23JgH-O0qc-139" vertex="1">
          <mxGeometry y="121.73076923076923" width="180" height="24.346153846153847" as="geometry" />
        </mxCell>
        <mxCell id="kRjiYqjKtC23JgH-O0qc-154" value="" style="shape=partialRectangle;connectable=1;fillColor=none;top=0;left=0;bottom=0;right=0;editable=1;overflow=hidden;whiteSpace=wrap;html=1;movable=1;resizable=1;rotatable=1;deletable=1;locked=0;" parent="kRjiYqjKtC23JgH-O0qc-153" vertex="1">
          <mxGeometry width="30" height="24.346153846153847" as="geometry">
            <mxRectangle width="30" height="30" as="alternateBounds" />
          </mxGeometry>
        </mxCell>
        <mxCell id="kRjiYqjKtC23JgH-O0qc-156" value="" style="shape=tableRow;horizontal=0;startSize=0;swimlaneHead=0;swimlaneBody=0;fillColor=none;collapsible=0;dropTarget=0;points=[[0,0.5],[1,0.5]];portConstraint=eastwest;top=0;left=0;right=0;bottom=0;movable=1;resizable=1;rotatable=1;deletable=1;editable=1;locked=0;connectable=1;" parent="kRjiYqjKtC23JgH-O0qc-139" vertex="1">
          <mxGeometry y="146.07692307692307" width="180" height="24.346153846153847" as="geometry" />
        </mxCell>
        <mxCell id="kRjiYqjKtC23JgH-O0qc-157" value="" style="shape=partialRectangle;connectable=1;fillColor=none;top=0;left=0;bottom=0;right=0;editable=1;overflow=hidden;whiteSpace=wrap;html=1;movable=1;resizable=1;rotatable=1;deletable=1;locked=0;" parent="kRjiYqjKtC23JgH-O0qc-156" vertex="1">
          <mxGeometry width="30" height="24.346153846153847" as="geometry">
            <mxRectangle width="30" height="30" as="alternateBounds" />
          </mxGeometry>
        </mxCell>
        <mxCell id="kRjiYqjKtC23JgH-O0qc-159" value="" style="shape=tableRow;horizontal=0;startSize=0;swimlaneHead=0;swimlaneBody=0;fillColor=none;collapsible=0;dropTarget=0;points=[[0,0.5],[1,0.5]];portConstraint=eastwest;top=0;left=0;right=0;bottom=0;movable=1;resizable=1;rotatable=1;deletable=1;editable=1;locked=0;connectable=1;" parent="kRjiYqjKtC23JgH-O0qc-139" vertex="1">
          <mxGeometry y="170.42307692307693" width="180" height="24.346153846153847" as="geometry" />
        </mxCell>
        <mxCell id="kRjiYqjKtC23JgH-O0qc-160" value="" style="shape=partialRectangle;connectable=1;fillColor=none;top=0;left=0;bottom=0;right=0;editable=1;overflow=hidden;whiteSpace=wrap;html=1;movable=1;resizable=1;rotatable=1;deletable=1;locked=0;" parent="kRjiYqjKtC23JgH-O0qc-159" vertex="1">
          <mxGeometry width="30" height="24.346153846153847" as="geometry">
            <mxRectangle width="30" height="30" as="alternateBounds" />
          </mxGeometry>
        </mxCell>
        <mxCell id="kRjiYqjKtC23JgH-O0qc-168" style="edgeStyle=orthogonalEdgeStyle;rounded=0;orthogonalLoop=1;jettySize=auto;html=1;entryX=0;entryY=0.5;entryDx=0;entryDy=0;fontFamily=Helvetica;fontSize=12;fontColor=default;fontStyle=1;" parent="1" source="kRjiYqjKtC23JgH-O0qc-162" target="kRjiYqjKtC23JgH-O0qc-148" edge="1">
          <mxGeometry relative="1" as="geometry" />
        </mxCell>
        <mxCell id="kRjiYqjKtC23JgH-O0qc-162" value="" style="rhombus;whiteSpace=wrap;html=1;startSize=30;fontStyle=1;resizable=1;" parent="1" vertex="1">
          <mxGeometry x="380" y="1264" width="80" height="80" as="geometry" />
        </mxCell>
        <mxCell id="kRjiYqjKtC23JgH-O0qc-173" style="edgeStyle=orthogonalEdgeStyle;rounded=0;orthogonalLoop=1;jettySize=auto;html=1;entryX=0;entryY=0.5;entryDx=0;entryDy=0;fontFamily=Helvetica;fontSize=12;fontColor=default;fontStyle=1;" parent="1" source="kRjiYqjKtC23JgH-O0qc-170" target="kRjiYqjKtC23JgH-O0qc-118" edge="1">
          <mxGeometry relative="1" as="geometry" />
        </mxCell>
        <mxCell id="kRjiYqjKtC23JgH-O0qc-170" value="" style="rhombus;whiteSpace=wrap;html=1;startSize=30;fontStyle=1;resizable=1;" parent="1" vertex="1">
          <mxGeometry x="810" y="1229" width="80" height="80" as="geometry" />
        </mxCell>
        <mxCell id="kRjiYqjKtC23JgH-O0qc-174" style="edgeStyle=orthogonalEdgeStyle;rounded=0;orthogonalLoop=1;jettySize=auto;html=1;entryX=0;entryY=0.5;entryDx=0;entryDy=0;fontFamily=Helvetica;fontSize=12;fontColor=default;fontStyle=1;" parent="1" source="kRjiYqjKtC23JgH-O0qc-140" target="kRjiYqjKtC23JgH-O0qc-170" edge="1">
          <mxGeometry relative="1" as="geometry" />
        </mxCell>
        <mxCell id="kRjiYqjKtC23JgH-O0qc-175" value="" style="group" parent="1" vertex="1" connectable="0">
          <mxGeometry x="910" y="497" width="180" height="320" as="geometry" />
        </mxCell>
        <mxCell id="kRjiYqjKtC23JgH-O0qc-176" value="DRR&lt;div&gt;(Delivery and Receiving Report)&lt;/div&gt;" style="shape=table;startSize=30;container=1;collapsible=1;childLayout=tableLayout;fixedRows=1;rowLines=0;fontStyle=1;align=center;resizeLast=1;html=1;editable=1;movable=1;resizable=1;rotatable=1;deletable=1;locked=0;connectable=1;" parent="kRjiYqjKtC23JgH-O0qc-175" vertex="1">
          <mxGeometry width="180" height="320" as="geometry">
            <mxRectangle x="70" y="70" width="70" height="30" as="alternateBounds" />
          </mxGeometry>
        </mxCell>
        <mxCell id="kRjiYqjKtC23JgH-O0qc-177" value="" style="shape=tableRow;horizontal=0;startSize=0;swimlaneHead=0;swimlaneBody=0;fillColor=none;collapsible=0;dropTarget=0;points=[[0,0.5],[1,0.5]];portConstraint=eastwest;top=0;left=0;right=0;bottom=1;movable=1;resizable=1;rotatable=1;deletable=1;editable=1;locked=0;connectable=1;" parent="kRjiYqjKtC23JgH-O0qc-176" vertex="1">
          <mxGeometry y="30" width="180" height="30" as="geometry" />
        </mxCell>
        <mxCell id="kRjiYqjKtC23JgH-O0qc-178" value="PK" style="shape=partialRectangle;connectable=1;fillColor=none;top=0;left=0;bottom=0;right=0;fontStyle=1;overflow=hidden;whiteSpace=wrap;html=1;movable=1;resizable=1;rotatable=1;deletable=1;editable=1;locked=0;" parent="kRjiYqjKtC23JgH-O0qc-177" vertex="1">
          <mxGeometry width="30" height="30" as="geometry">
            <mxRectangle width="30" height="30" as="alternateBounds" />
          </mxGeometry>
        </mxCell>
        <mxCell id="kRjiYqjKtC23JgH-O0qc-179" value="DDRNo" style="shape=partialRectangle;connectable=1;fillColor=none;top=0;left=0;bottom=0;right=0;align=left;spacingLeft=6;fontStyle=5;overflow=hidden;whiteSpace=wrap;html=1;movable=1;resizable=1;rotatable=1;deletable=1;editable=1;locked=0;" parent="kRjiYqjKtC23JgH-O0qc-177" vertex="1">
          <mxGeometry x="30" width="150" height="30" as="geometry">
            <mxRectangle width="150" height="30" as="alternateBounds" />
          </mxGeometry>
        </mxCell>
        <mxCell id="kRjiYqjKtC23JgH-O0qc-180" value="" style="shape=tableRow;horizontal=0;startSize=0;swimlaneHead=0;swimlaneBody=0;fillColor=none;collapsible=0;dropTarget=0;points=[[0,0.5],[1,0.5]];portConstraint=eastwest;top=0;left=0;right=0;bottom=0;movable=1;resizable=1;rotatable=1;deletable=1;editable=1;locked=0;connectable=1;" parent="kRjiYqjKtC23JgH-O0qc-176" vertex="1">
          <mxGeometry y="60" width="180" height="30" as="geometry" />
        </mxCell>
        <mxCell id="kRjiYqjKtC23JgH-O0qc-181" value="FK" style="shape=partialRectangle;connectable=1;fillColor=none;top=0;left=0;bottom=0;right=0;editable=1;overflow=hidden;whiteSpace=wrap;html=1;movable=1;resizable=1;rotatable=1;deletable=1;locked=0;" parent="kRjiYqjKtC23JgH-O0qc-180" vertex="1">
          <mxGeometry width="30" height="30" as="geometry">
            <mxRectangle width="30" height="30" as="alternateBounds" />
          </mxGeometry>
        </mxCell>
        <mxCell id="kRjiYqjKtC23JgH-O0qc-182" value="SRNo" style="shape=partialRectangle;connectable=1;fillColor=none;top=0;left=0;bottom=0;right=0;align=left;spacingLeft=6;overflow=hidden;whiteSpace=wrap;html=1;movable=1;resizable=1;rotatable=1;deletable=1;editable=1;locked=0;" parent="kRjiYqjKtC23JgH-O0qc-180" vertex="1">
          <mxGeometry x="30" width="150" height="30" as="geometry">
            <mxRectangle width="150" height="30" as="alternateBounds" />
          </mxGeometry>
        </mxCell>
        <mxCell id="kRjiYqjKtC23JgH-O0qc-183" value="" style="shape=tableRow;horizontal=0;startSize=0;swimlaneHead=0;swimlaneBody=0;fillColor=none;collapsible=0;dropTarget=0;points=[[0,0.5],[1,0.5]];portConstraint=eastwest;top=0;left=0;right=0;bottom=0;movable=1;resizable=1;rotatable=1;deletable=1;editable=1;locked=0;connectable=1;" parent="kRjiYqjKtC23JgH-O0qc-176" vertex="1">
          <mxGeometry y="90" width="180" height="30" as="geometry" />
        </mxCell>
        <mxCell id="kRjiYqjKtC23JgH-O0qc-184" value="FK" style="shape=partialRectangle;connectable=1;fillColor=none;top=0;left=0;bottom=0;right=0;editable=1;overflow=hidden;whiteSpace=wrap;html=1;movable=1;resizable=1;rotatable=1;deletable=1;locked=0;" parent="kRjiYqjKtC23JgH-O0qc-183" vertex="1">
          <mxGeometry width="30" height="30" as="geometry">
            <mxRectangle width="30" height="30" as="alternateBounds" />
          </mxGeometry>
        </mxCell>
        <mxCell id="kRjiYqjKtC23JgH-O0qc-185" value="UID" style="shape=partialRectangle;connectable=1;fillColor=none;top=0;left=0;bottom=0;right=0;align=left;spacingLeft=6;overflow=hidden;whiteSpace=wrap;html=1;movable=1;resizable=1;rotatable=1;deletable=1;editable=1;locked=0;" parent="kRjiYqjKtC23JgH-O0qc-183" vertex="1">
          <mxGeometry x="30" width="150" height="30" as="geometry">
            <mxRectangle width="150" height="30" as="alternateBounds" />
          </mxGeometry>
        </mxCell>
        <mxCell id="kRjiYqjKtC23JgH-O0qc-186" value="" style="shape=tableRow;horizontal=0;startSize=0;swimlaneHead=0;swimlaneBody=0;fillColor=none;collapsible=0;dropTarget=0;points=[[0,0.5],[1,0.5]];portConstraint=eastwest;top=0;left=0;right=0;bottom=0;movable=1;resizable=1;rotatable=1;deletable=1;editable=1;locked=0;connectable=1;" parent="kRjiYqjKtC23JgH-O0qc-176" vertex="1">
          <mxGeometry y="120" width="180" height="30" as="geometry" />
        </mxCell>
        <mxCell id="kRjiYqjKtC23JgH-O0qc-187" value="" style="shape=partialRectangle;connectable=1;fillColor=none;top=0;left=0;bottom=0;right=0;editable=1;overflow=hidden;whiteSpace=wrap;html=1;movable=1;resizable=1;rotatable=1;deletable=1;locked=0;" parent="kRjiYqjKtC23JgH-O0qc-186" vertex="1">
          <mxGeometry width="30" height="30" as="geometry">
            <mxRectangle width="30" height="30" as="alternateBounds" />
          </mxGeometry>
        </mxCell>
        <mxCell id="kRjiYqjKtC23JgH-O0qc-188" value="BUnit" style="shape=partialRectangle;connectable=1;fillColor=none;top=0;left=0;bottom=0;right=0;align=left;spacingLeft=6;overflow=hidden;whiteSpace=wrap;html=1;movable=1;resizable=1;rotatable=1;deletable=1;editable=1;locked=0;" parent="kRjiYqjKtC23JgH-O0qc-186" vertex="1">
          <mxGeometry x="30" width="150" height="30" as="geometry">
            <mxRectangle width="150" height="30" as="alternateBounds" />
          </mxGeometry>
        </mxCell>
        <mxCell id="kRjiYqjKtC23JgH-O0qc-189" value="" style="shape=tableRow;horizontal=0;startSize=0;swimlaneHead=0;swimlaneBody=0;fillColor=none;collapsible=0;dropTarget=0;points=[[0,0.5],[1,0.5]];portConstraint=eastwest;top=0;left=0;right=0;bottom=0;movable=1;resizable=1;rotatable=1;deletable=1;editable=1;locked=0;connectable=1;" parent="kRjiYqjKtC23JgH-O0qc-175" vertex="1">
          <mxGeometry y="150" width="180" height="30" as="geometry" />
        </mxCell>
        <mxCell id="kRjiYqjKtC23JgH-O0qc-190" value="" style="shape=partialRectangle;connectable=1;fillColor=none;top=0;left=0;bottom=0;right=0;editable=1;overflow=hidden;whiteSpace=wrap;html=1;movable=1;resizable=1;rotatable=1;deletable=1;locked=0;" parent="kRjiYqjKtC23JgH-O0qc-189" vertex="1">
          <mxGeometry width="30" height="30" as="geometry">
            <mxRectangle width="30" height="30" as="alternateBounds" />
          </mxGeometry>
        </mxCell>
        <mxCell id="kRjiYqjKtC23JgH-O0qc-191" value="Qty" style="shape=partialRectangle;connectable=1;fillColor=none;top=0;left=0;bottom=0;right=0;align=left;spacingLeft=6;overflow=hidden;whiteSpace=wrap;html=1;movable=1;resizable=1;rotatable=1;deletable=1;editable=1;locked=0;" parent="kRjiYqjKtC23JgH-O0qc-189" vertex="1">
          <mxGeometry x="30" width="150" height="30" as="geometry">
            <mxRectangle width="150" height="30" as="alternateBounds" />
          </mxGeometry>
        </mxCell>
        <mxCell id="kRjiYqjKtC23JgH-O0qc-192" value="" style="shape=tableRow;horizontal=0;startSize=0;swimlaneHead=0;swimlaneBody=0;fillColor=none;collapsible=0;dropTarget=0;points=[[0,0.5],[1,0.5]];portConstraint=eastwest;top=0;left=0;right=0;bottom=0;movable=1;resizable=1;rotatable=1;deletable=1;editable=1;locked=0;connectable=1;" parent="kRjiYqjKtC23JgH-O0qc-175" vertex="1">
          <mxGeometry y="180" width="180" height="30" as="geometry" />
        </mxCell>
        <mxCell id="kRjiYqjKtC23JgH-O0qc-193" value="FK" style="shape=partialRectangle;connectable=1;fillColor=none;top=0;left=0;bottom=0;right=0;editable=1;overflow=hidden;whiteSpace=wrap;html=1;movable=1;resizable=1;rotatable=1;deletable=1;locked=0;" parent="kRjiYqjKtC23JgH-O0qc-192" vertex="1">
          <mxGeometry width="30" height="30" as="geometry">
            <mxRectangle width="30" height="30" as="alternateBounds" />
          </mxGeometry>
        </mxCell>
        <mxCell id="kRjiYqjKtC23JgH-O0qc-194" value="WarehouseNo" style="shape=partialRectangle;connectable=1;fillColor=none;top=0;left=0;bottom=0;right=0;align=left;spacingLeft=6;overflow=hidden;whiteSpace=wrap;html=1;movable=1;resizable=1;rotatable=1;deletable=1;editable=1;locked=0;" parent="kRjiYqjKtC23JgH-O0qc-192" vertex="1">
          <mxGeometry x="30" width="150" height="30" as="geometry">
            <mxRectangle width="150" height="30" as="alternateBounds" />
          </mxGeometry>
        </mxCell>
        <mxCell id="kRjiYqjKtC23JgH-O0qc-195" value="" style="shape=tableRow;horizontal=0;startSize=0;swimlaneHead=0;swimlaneBody=0;fillColor=none;collapsible=0;dropTarget=0;points=[[0,0.5],[1,0.5]];portConstraint=eastwest;top=0;left=0;right=0;bottom=0;movable=1;resizable=1;rotatable=1;deletable=1;editable=1;locked=0;connectable=1;" parent="kRjiYqjKtC23JgH-O0qc-175" vertex="1">
          <mxGeometry y="210" width="180" height="30" as="geometry" />
        </mxCell>
        <mxCell id="kRjiYqjKtC23JgH-O0qc-196" value="" style="shape=partialRectangle;connectable=1;fillColor=none;top=0;left=0;bottom=0;right=0;editable=1;overflow=hidden;whiteSpace=wrap;html=1;movable=1;resizable=1;rotatable=1;deletable=1;locked=0;" parent="kRjiYqjKtC23JgH-O0qc-195" vertex="1">
          <mxGeometry width="30" height="30" as="geometry">
            <mxRectangle width="30" height="30" as="alternateBounds" />
          </mxGeometry>
        </mxCell>
        <mxCell id="kRjiYqjKtC23JgH-O0qc-197" value="SINo" style="shape=partialRectangle;connectable=1;fillColor=none;top=0;left=0;bottom=0;right=0;align=left;spacingLeft=6;overflow=hidden;whiteSpace=wrap;html=1;movable=1;resizable=1;rotatable=1;deletable=1;editable=1;locked=0;" parent="kRjiYqjKtC23JgH-O0qc-195" vertex="1">
          <mxGeometry x="30" width="150" height="30" as="geometry">
            <mxRectangle width="150" height="30" as="alternateBounds" />
          </mxGeometry>
        </mxCell>
        <mxCell id="kRjiYqjKtC23JgH-O0qc-307" value="" style="shape=tableRow;horizontal=0;startSize=0;swimlaneHead=0;swimlaneBody=0;fillColor=none;collapsible=0;dropTarget=0;points=[[0,0.5],[1,0.5]];portConstraint=eastwest;top=0;left=0;right=0;bottom=0;movable=1;resizable=1;rotatable=1;deletable=1;editable=1;locked=0;connectable=1;" parent="kRjiYqjKtC23JgH-O0qc-175" vertex="1">
          <mxGeometry y="240" width="180" height="30" as="geometry" />
        </mxCell>
        <mxCell id="kRjiYqjKtC23JgH-O0qc-308" value="" style="shape=partialRectangle;connectable=1;fillColor=none;top=0;left=0;bottom=0;right=0;editable=1;overflow=hidden;whiteSpace=wrap;html=1;movable=1;resizable=1;rotatable=1;deletable=1;locked=0;" parent="kRjiYqjKtC23JgH-O0qc-307" vertex="1">
          <mxGeometry width="30" height="30" as="geometry">
            <mxRectangle width="30" height="30" as="alternateBounds" />
          </mxGeometry>
        </mxCell>
        <mxCell id="kRjiYqjKtC23JgH-O0qc-309" value="Date_Created" style="shape=partialRectangle;connectable=1;fillColor=none;top=0;left=0;bottom=0;right=0;align=left;spacingLeft=6;overflow=hidden;whiteSpace=wrap;html=1;movable=1;resizable=1;rotatable=1;deletable=1;editable=1;locked=0;" parent="kRjiYqjKtC23JgH-O0qc-307" vertex="1">
          <mxGeometry x="30" width="150" height="30" as="geometry">
            <mxRectangle width="150" height="30" as="alternateBounds" />
          </mxGeometry>
        </mxCell>
        <mxCell id="kRjiYqjKtC23JgH-O0qc-333" value="" style="shape=tableRow;horizontal=0;startSize=0;swimlaneHead=0;swimlaneBody=0;fillColor=none;collapsible=0;dropTarget=0;points=[[0,0.5],[1,0.5]];portConstraint=eastwest;top=0;left=0;right=0;bottom=0;movable=1;resizable=1;rotatable=1;deletable=1;editable=1;locked=0;connectable=1;" parent="kRjiYqjKtC23JgH-O0qc-175" vertex="1">
          <mxGeometry y="270" width="180" height="30" as="geometry" />
        </mxCell>
        <mxCell id="kRjiYqjKtC23JgH-O0qc-334" value="" style="shape=partialRectangle;connectable=1;fillColor=none;top=0;left=0;bottom=0;right=0;editable=1;overflow=hidden;whiteSpace=wrap;html=1;movable=1;resizable=1;rotatable=1;deletable=1;locked=0;" parent="kRjiYqjKtC23JgH-O0qc-333" vertex="1">
          <mxGeometry width="30" height="30" as="geometry">
            <mxRectangle width="30" height="30" as="alternateBounds" />
          </mxGeometry>
        </mxCell>
        <mxCell id="kRjiYqjKtC23JgH-O0qc-335" value="Date_Updated" style="shape=partialRectangle;connectable=1;fillColor=none;top=0;left=0;bottom=0;right=0;align=left;spacingLeft=6;overflow=hidden;whiteSpace=wrap;html=1;movable=1;resizable=1;rotatable=1;deletable=1;editable=1;locked=0;" parent="kRjiYqjKtC23JgH-O0qc-333" vertex="1">
          <mxGeometry x="30" width="150" height="30" as="geometry">
            <mxRectangle width="150" height="30" as="alternateBounds" />
          </mxGeometry>
        </mxCell>
        <mxCell id="kRjiYqjKtC23JgH-O0qc-256" value="" style="edgeStyle=orthogonalEdgeStyle;rounded=0;orthogonalLoop=1;jettySize=auto;html=1;fontFamily=Helvetica;fontSize=12;fontColor=default;fontStyle=1;" parent="1" source="kRjiYqjKtC23JgH-O0qc-198" target="kRjiYqjKtC23JgH-O0qc-255" edge="1">
          <mxGeometry relative="1" as="geometry" />
        </mxCell>
        <mxCell id="kRjiYqjKtC23JgH-O0qc-198" value="SR&lt;div&gt;(Stock Request)&lt;/div&gt;" style="shape=table;startSize=30;container=1;collapsible=1;childLayout=tableLayout;fixedRows=1;rowLines=0;fontStyle=0;align=center;resizeLast=1;html=1;editable=1;movable=1;resizable=1;rotatable=1;deletable=1;locked=0;connectable=1;" parent="1" vertex="1">
          <mxGeometry x="520" y="622" width="180" height="260" as="geometry">
            <mxRectangle x="70" y="70" width="70" height="30" as="alternateBounds" />
          </mxGeometry>
        </mxCell>
        <mxCell id="kRjiYqjKtC23JgH-O0qc-199" value="" style="shape=tableRow;horizontal=0;startSize=0;swimlaneHead=0;swimlaneBody=0;fillColor=none;collapsible=0;dropTarget=0;points=[[0,0.5],[1,0.5]];portConstraint=eastwest;top=0;left=0;right=0;bottom=1;movable=1;resizable=1;rotatable=1;deletable=1;editable=1;locked=0;connectable=1;" parent="kRjiYqjKtC23JgH-O0qc-198" vertex="1">
          <mxGeometry y="30" width="180" height="30" as="geometry" />
        </mxCell>
        <mxCell id="kRjiYqjKtC23JgH-O0qc-200" value="PK" style="shape=partialRectangle;connectable=1;fillColor=none;top=0;left=0;bottom=0;right=0;fontStyle=1;overflow=hidden;whiteSpace=wrap;html=1;movable=1;resizable=1;rotatable=1;deletable=1;editable=1;locked=0;" parent="kRjiYqjKtC23JgH-O0qc-199" vertex="1">
          <mxGeometry width="30" height="30" as="geometry">
            <mxRectangle width="30" height="30" as="alternateBounds" />
          </mxGeometry>
        </mxCell>
        <mxCell id="kRjiYqjKtC23JgH-O0qc-201" value="SRNo" style="shape=partialRectangle;connectable=1;fillColor=none;top=0;left=0;bottom=0;right=0;align=left;spacingLeft=6;fontStyle=5;overflow=hidden;whiteSpace=wrap;html=1;movable=1;resizable=1;rotatable=1;deletable=1;editable=1;locked=0;" parent="kRjiYqjKtC23JgH-O0qc-199" vertex="1">
          <mxGeometry x="30" width="150" height="30" as="geometry">
            <mxRectangle width="150" height="30" as="alternateBounds" />
          </mxGeometry>
        </mxCell>
        <mxCell id="kRjiYqjKtC23JgH-O0qc-202" value="" style="shape=tableRow;horizontal=0;startSize=0;swimlaneHead=0;swimlaneBody=0;fillColor=none;collapsible=0;dropTarget=0;points=[[0,0.5],[1,0.5]];portConstraint=eastwest;top=0;left=0;right=0;bottom=0;movable=1;resizable=1;rotatable=1;deletable=1;editable=1;locked=0;connectable=1;" parent="kRjiYqjKtC23JgH-O0qc-198" vertex="1">
          <mxGeometry y="60" width="180" height="30" as="geometry" />
        </mxCell>
        <mxCell id="kRjiYqjKtC23JgH-O0qc-203" value="FK" style="shape=partialRectangle;connectable=1;fillColor=none;top=0;left=0;bottom=0;right=0;editable=1;overflow=hidden;whiteSpace=wrap;html=1;movable=1;resizable=1;rotatable=1;deletable=1;locked=0;" parent="kRjiYqjKtC23JgH-O0qc-202" vertex="1">
          <mxGeometry width="30" height="30" as="geometry">
            <mxRectangle width="30" height="30" as="alternateBounds" />
          </mxGeometry>
        </mxCell>
        <mxCell id="kRjiYqjKtC23JgH-O0qc-204" value="&lt;font style=&quot;&quot; color=&quot;#007fff&quot;&gt;UID&lt;/font&gt;" style="shape=partialRectangle;connectable=1;fillColor=none;top=0;left=0;bottom=0;right=0;align=left;spacingLeft=6;overflow=hidden;whiteSpace=wrap;html=1;movable=1;resizable=1;rotatable=1;deletable=1;editable=1;locked=0;" parent="kRjiYqjKtC23JgH-O0qc-202" vertex="1">
          <mxGeometry x="30" width="150" height="30" as="geometry">
            <mxRectangle width="150" height="30" as="alternateBounds" />
          </mxGeometry>
        </mxCell>
        <mxCell id="kRjiYqjKtC23JgH-O0qc-205" value="" style="shape=tableRow;horizontal=0;startSize=0;swimlaneHead=0;swimlaneBody=0;fillColor=none;collapsible=0;dropTarget=0;points=[[0,0.5],[1,0.5]];portConstraint=eastwest;top=0;left=0;right=0;bottom=0;movable=1;resizable=1;rotatable=1;deletable=1;editable=1;locked=0;connectable=1;" parent="kRjiYqjKtC23JgH-O0qc-198" vertex="1">
          <mxGeometry y="90" width="180" height="30" as="geometry" />
        </mxCell>
        <mxCell id="kRjiYqjKtC23JgH-O0qc-206" value="" style="shape=partialRectangle;connectable=1;fillColor=none;top=0;left=0;bottom=0;right=0;editable=1;overflow=hidden;whiteSpace=wrap;html=1;movable=1;resizable=1;rotatable=1;deletable=1;locked=0;" parent="kRjiYqjKtC23JgH-O0qc-205" vertex="1">
          <mxGeometry width="30" height="30" as="geometry">
            <mxRectangle width="30" height="30" as="alternateBounds" />
          </mxGeometry>
        </mxCell>
        <mxCell id="kRjiYqjKtC23JgH-O0qc-207" value="Date_Created" style="shape=partialRectangle;connectable=1;fillColor=none;top=0;left=0;bottom=0;right=0;align=left;spacingLeft=6;overflow=hidden;whiteSpace=wrap;html=1;movable=1;resizable=1;rotatable=1;deletable=1;editable=1;locked=0;" parent="kRjiYqjKtC23JgH-O0qc-205" vertex="1">
          <mxGeometry x="30" width="150" height="30" as="geometry">
            <mxRectangle width="150" height="30" as="alternateBounds" />
          </mxGeometry>
        </mxCell>
        <mxCell id="kRjiYqjKtC23JgH-O0qc-208" value="" style="shape=tableRow;horizontal=0;startSize=0;swimlaneHead=0;swimlaneBody=0;fillColor=none;collapsible=0;dropTarget=0;points=[[0,0.5],[1,0.5]];portConstraint=eastwest;top=0;left=0;right=0;bottom=0;movable=1;resizable=1;rotatable=1;deletable=1;editable=1;locked=0;connectable=1;" parent="kRjiYqjKtC23JgH-O0qc-198" vertex="1">
          <mxGeometry y="120" width="180" height="30" as="geometry" />
        </mxCell>
        <mxCell id="kRjiYqjKtC23JgH-O0qc-209" value="" style="shape=partialRectangle;connectable=1;fillColor=none;top=0;left=0;bottom=0;right=0;editable=1;overflow=hidden;whiteSpace=wrap;html=1;movable=1;resizable=1;rotatable=1;deletable=1;locked=0;" parent="kRjiYqjKtC23JgH-O0qc-208" vertex="1">
          <mxGeometry width="30" height="30" as="geometry">
            <mxRectangle width="30" height="30" as="alternateBounds" />
          </mxGeometry>
        </mxCell>
        <mxCell id="kRjiYqjKtC23JgH-O0qc-210" value="Date_Updated" style="shape=partialRectangle;connectable=1;fillColor=none;top=0;left=0;bottom=0;right=0;align=left;spacingLeft=6;overflow=hidden;whiteSpace=wrap;html=1;movable=1;resizable=1;rotatable=1;deletable=1;editable=1;locked=0;" parent="kRjiYqjKtC23JgH-O0qc-208" vertex="1">
          <mxGeometry x="30" width="150" height="30" as="geometry">
            <mxRectangle width="150" height="30" as="alternateBounds" />
          </mxGeometry>
        </mxCell>
        <mxCell id="kRjiYqjKtC23JgH-O0qc-245" style="edgeStyle=orthogonalEdgeStyle;rounded=0;orthogonalLoop=1;jettySize=auto;html=1;entryX=0.5;entryY=1;entryDx=0;entryDy=0;fontFamily=Helvetica;fontSize=12;fontColor=default;fontStyle=1;" parent="1" source="kRjiYqjKtC23JgH-O0qc-224" target="kRjiYqjKtC23JgH-O0qc-231" edge="1">
          <mxGeometry relative="1" as="geometry" />
        </mxCell>
        <mxCell id="kRjiYqjKtC23JgH-O0qc-224" value="" style="rhombus;whiteSpace=wrap;html=1;startSize=30;fontStyle=1;resizable=1;" parent="1" vertex="1">
          <mxGeometry x="730" y="970" width="80" height="80" as="geometry" />
        </mxCell>
        <mxCell id="kRjiYqjKtC23JgH-O0qc-225" value="" style="edgeStyle=orthogonalEdgeStyle;rounded=0;orthogonalLoop=1;jettySize=auto;html=1;fontFamily=Helvetica;fontSize=12;fontColor=default;fontStyle=1;entryX=1;entryY=0.5;entryDx=0;entryDy=0;exitX=0.5;exitY=0;exitDx=0;exitDy=0;" parent="1" source="kRjiYqjKtC23JgH-O0qc-116" target="kRjiYqjKtC23JgH-O0qc-224" edge="1">
          <mxGeometry relative="1" as="geometry">
            <mxPoint x="220" y="1099" as="targetPoint" />
          </mxGeometry>
        </mxCell>
        <mxCell id="kRjiYqjKtC23JgH-O0qc-228" value="" style="rhombus;whiteSpace=wrap;html=1;startSize=30;fontStyle=1;resizable=1;" parent="1" vertex="1">
          <mxGeometry x="190" y="598" width="80" height="80" as="geometry" />
        </mxCell>
        <mxCell id="kRjiYqjKtC23JgH-O0qc-229" value="" style="edgeStyle=orthogonalEdgeStyle;rounded=0;orthogonalLoop=1;jettySize=auto;html=1;fontFamily=Helvetica;fontSize=12;fontColor=default;fontStyle=1;exitX=0;exitY=0.5;exitDx=0;exitDy=0;entryX=0;entryY=0.5;entryDx=0;entryDy=0;" parent="1" source="kRjiYqjKtC23JgH-O0qc-4" target="kRjiYqjKtC23JgH-O0qc-228" edge="1">
          <mxGeometry relative="1" as="geometry">
            <Array as="points">
              <mxPoint x="40" y="210" />
              <mxPoint x="40" y="638" />
            </Array>
          </mxGeometry>
        </mxCell>
        <mxCell id="kRjiYqjKtC23JgH-O0qc-230" style="edgeStyle=orthogonalEdgeStyle;rounded=0;orthogonalLoop=1;jettySize=auto;html=1;entryX=0.006;entryY=0.062;entryDx=0;entryDy=0;entryPerimeter=0;fontFamily=Helvetica;fontSize=12;fontColor=default;fontStyle=1;" parent="1" source="kRjiYqjKtC23JgH-O0qc-228" target="kRjiYqjKtC23JgH-O0qc-198" edge="1">
          <mxGeometry relative="1" as="geometry" />
        </mxCell>
        <mxCell id="kRjiYqjKtC23JgH-O0qc-253" value="" style="edgeStyle=orthogonalEdgeStyle;rounded=0;orthogonalLoop=1;jettySize=auto;html=1;fontFamily=Helvetica;fontSize=12;fontColor=default;fontStyle=1;exitX=1.004;exitY=0.073;exitDx=0;exitDy=0;exitPerimeter=0;" parent="1" source="kRjiYqjKtC23JgH-O0qc-231" target="kRjiYqjKtC23JgH-O0qc-252" edge="1">
          <mxGeometry relative="1" as="geometry" />
        </mxCell>
        <mxCell id="kRjiYqjKtC23JgH-O0qc-231" value="SRI&lt;div&gt;(Stock Request Item)&lt;/div&gt;" style="shape=table;startSize=30;container=1;collapsible=1;childLayout=tableLayout;fixedRows=1;rowLines=0;fontStyle=1;align=center;resizeLast=1;html=1;editable=1;movable=1;resizable=1;rotatable=1;deletable=1;locked=0;connectable=1;" parent="1" vertex="1">
          <mxGeometry x="130" y="800" width="180" height="153" as="geometry">
            <mxRectangle x="70" y="70" width="70" height="30" as="alternateBounds" />
          </mxGeometry>
        </mxCell>
        <mxCell id="kRjiYqjKtC23JgH-O0qc-232" value="" style="shape=tableRow;horizontal=0;startSize=0;swimlaneHead=0;swimlaneBody=0;fillColor=none;collapsible=0;dropTarget=0;points=[[0,0.5],[1,0.5]];portConstraint=eastwest;top=0;left=0;right=0;bottom=1;movable=1;resizable=1;rotatable=1;deletable=1;editable=1;locked=0;connectable=1;" parent="kRjiYqjKtC23JgH-O0qc-231" vertex="1">
          <mxGeometry y="30" width="180" height="30" as="geometry" />
        </mxCell>
        <mxCell id="kRjiYqjKtC23JgH-O0qc-233" value="PK" style="shape=partialRectangle;connectable=1;fillColor=none;top=0;left=0;bottom=0;right=0;fontStyle=1;overflow=hidden;whiteSpace=wrap;html=1;movable=1;resizable=1;rotatable=1;deletable=1;editable=1;locked=0;" parent="kRjiYqjKtC23JgH-O0qc-232" vertex="1">
          <mxGeometry width="30" height="30" as="geometry">
            <mxRectangle width="30" height="30" as="alternateBounds" />
          </mxGeometry>
        </mxCell>
        <mxCell id="kRjiYqjKtC23JgH-O0qc-234" value="ID" style="shape=partialRectangle;connectable=1;fillColor=none;top=0;left=0;bottom=0;right=0;align=left;spacingLeft=6;fontStyle=5;overflow=hidden;whiteSpace=wrap;html=1;movable=1;resizable=1;rotatable=1;deletable=1;editable=1;locked=0;" parent="kRjiYqjKtC23JgH-O0qc-232" vertex="1">
          <mxGeometry x="30" width="150" height="30" as="geometry">
            <mxRectangle width="150" height="30" as="alternateBounds" />
          </mxGeometry>
        </mxCell>
        <mxCell id="kRjiYqjKtC23JgH-O0qc-235" value="" style="shape=tableRow;horizontal=0;startSize=0;swimlaneHead=0;swimlaneBody=0;fillColor=none;collapsible=0;dropTarget=0;points=[[0,0.5],[1,0.5]];portConstraint=eastwest;top=0;left=0;right=0;bottom=0;movable=1;resizable=1;rotatable=1;deletable=1;editable=1;locked=0;connectable=1;" parent="kRjiYqjKtC23JgH-O0qc-231" vertex="1">
          <mxGeometry y="60" width="180" height="30" as="geometry" />
        </mxCell>
        <mxCell id="kRjiYqjKtC23JgH-O0qc-236" value="FK" style="shape=partialRectangle;connectable=1;fillColor=none;top=0;left=0;bottom=0;right=0;editable=1;overflow=hidden;whiteSpace=wrap;html=1;movable=1;resizable=1;rotatable=1;deletable=1;locked=0;" parent="kRjiYqjKtC23JgH-O0qc-235" vertex="1">
          <mxGeometry width="30" height="30" as="geometry">
            <mxRectangle width="30" height="30" as="alternateBounds" />
          </mxGeometry>
        </mxCell>
        <mxCell id="kRjiYqjKtC23JgH-O0qc-237" value="&lt;font color=&quot;#3399ff&quot;&gt;&lt;b&gt;SRNo&lt;/b&gt;&lt;/font&gt;" style="shape=partialRectangle;connectable=1;fillColor=none;top=0;left=0;bottom=0;right=0;align=left;spacingLeft=6;overflow=hidden;whiteSpace=wrap;html=1;movable=1;resizable=1;rotatable=1;deletable=1;editable=1;locked=0;" parent="kRjiYqjKtC23JgH-O0qc-235" vertex="1">
          <mxGeometry x="30" width="150" height="30" as="geometry">
            <mxRectangle width="150" height="30" as="alternateBounds" />
          </mxGeometry>
        </mxCell>
        <mxCell id="kRjiYqjKtC23JgH-O0qc-238" value="" style="shape=tableRow;horizontal=0;startSize=0;swimlaneHead=0;swimlaneBody=0;fillColor=none;collapsible=0;dropTarget=0;points=[[0,0.5],[1,0.5]];portConstraint=eastwest;top=0;left=0;right=0;bottom=0;movable=1;resizable=1;rotatable=1;deletable=1;editable=1;locked=0;connectable=1;" parent="kRjiYqjKtC23JgH-O0qc-231" vertex="1">
          <mxGeometry y="90" width="180" height="30" as="geometry" />
        </mxCell>
        <mxCell id="kRjiYqjKtC23JgH-O0qc-239" value="" style="shape=partialRectangle;connectable=1;fillColor=none;top=0;left=0;bottom=0;right=0;editable=1;overflow=hidden;whiteSpace=wrap;html=1;movable=1;resizable=1;rotatable=1;deletable=1;locked=0;" parent="kRjiYqjKtC23JgH-O0qc-238" vertex="1">
          <mxGeometry width="30" height="30" as="geometry">
            <mxRectangle width="30" height="30" as="alternateBounds" />
          </mxGeometry>
        </mxCell>
        <mxCell id="kRjiYqjKtC23JgH-O0qc-240" value="ItemNo" style="shape=partialRectangle;connectable=1;fillColor=none;top=0;left=0;bottom=0;right=0;align=left;spacingLeft=6;overflow=hidden;whiteSpace=wrap;html=1;movable=1;resizable=1;rotatable=1;deletable=1;editable=1;locked=0;" parent="kRjiYqjKtC23JgH-O0qc-238" vertex="1">
          <mxGeometry x="30" width="150" height="30" as="geometry">
            <mxRectangle width="150" height="30" as="alternateBounds" />
          </mxGeometry>
        </mxCell>
        <mxCell id="kRjiYqjKtC23JgH-O0qc-241" value="" style="shape=tableRow;horizontal=0;startSize=0;swimlaneHead=0;swimlaneBody=0;fillColor=none;collapsible=0;dropTarget=0;points=[[0,0.5],[1,0.5]];portConstraint=eastwest;top=0;left=0;right=0;bottom=0;movable=1;resizable=1;rotatable=1;deletable=1;editable=1;locked=0;connectable=1;" parent="kRjiYqjKtC23JgH-O0qc-231" vertex="1">
          <mxGeometry y="120" width="180" height="30" as="geometry" />
        </mxCell>
        <mxCell id="kRjiYqjKtC23JgH-O0qc-242" value="" style="shape=partialRectangle;connectable=1;fillColor=none;top=0;left=0;bottom=0;right=0;editable=1;overflow=hidden;whiteSpace=wrap;html=1;movable=1;resizable=1;rotatable=1;deletable=1;locked=0;" parent="kRjiYqjKtC23JgH-O0qc-241" vertex="1">
          <mxGeometry width="30" height="30" as="geometry">
            <mxRectangle width="30" height="30" as="alternateBounds" />
          </mxGeometry>
        </mxCell>
        <mxCell id="kRjiYqjKtC23JgH-O0qc-243" value="Qty" style="shape=partialRectangle;connectable=1;fillColor=none;top=0;left=0;bottom=0;right=0;align=left;spacingLeft=6;overflow=hidden;whiteSpace=wrap;html=1;movable=1;resizable=1;rotatable=1;deletable=1;editable=1;locked=0;" parent="kRjiYqjKtC23JgH-O0qc-241" vertex="1">
          <mxGeometry x="30" width="150" height="30" as="geometry">
            <mxRectangle width="150" height="30" as="alternateBounds" />
          </mxGeometry>
        </mxCell>
        <mxCell id="kRjiYqjKtC23JgH-O0qc-246" value="" style="shape=tableRow;horizontal=0;startSize=0;swimlaneHead=0;swimlaneBody=0;fillColor=none;collapsible=0;dropTarget=0;points=[[0,0.5],[1,0.5]];portConstraint=eastwest;top=0;left=0;right=0;bottom=0;movable=1;resizable=1;rotatable=1;deletable=1;editable=1;locked=0;connectable=1;" parent="1" vertex="1">
          <mxGeometry x="130" y="870" width="180" height="30" as="geometry" />
        </mxCell>
        <mxCell id="kRjiYqjKtC23JgH-O0qc-249" value="" style="shape=tableRow;horizontal=0;startSize=0;swimlaneHead=0;swimlaneBody=0;fillColor=none;collapsible=0;dropTarget=0;points=[[0,0.5],[1,0.5]];portConstraint=eastwest;top=0;left=0;right=0;bottom=0;movable=1;resizable=1;rotatable=1;deletable=1;editable=1;locked=0;connectable=1;" parent="1" vertex="1">
          <mxGeometry x="130" y="900" width="180" height="30" as="geometry" />
        </mxCell>
        <mxCell id="kRjiYqjKtC23JgH-O0qc-254" style="edgeStyle=orthogonalEdgeStyle;rounded=0;orthogonalLoop=1;jettySize=auto;html=1;entryX=0;entryY=0.5;entryDx=0;entryDy=0;fontFamily=Helvetica;fontSize=12;fontColor=default;fontStyle=1;exitX=1;exitY=0.5;exitDx=0;exitDy=0;" parent="1" source="kRjiYqjKtC23JgH-O0qc-252" target="kRjiYqjKtC23JgH-O0qc-200" edge="1">
          <mxGeometry relative="1" as="geometry">
            <Array as="points">
              <mxPoint x="470" y="733" />
              <mxPoint x="470" y="667" />
            </Array>
          </mxGeometry>
        </mxCell>
        <mxCell id="kRjiYqjKtC23JgH-O0qc-252" value="" style="rhombus;whiteSpace=wrap;html=1;startSize=30;fontStyle=1;resizable=1;" parent="1" vertex="1">
          <mxGeometry x="360" y="693" width="80" height="80" as="geometry" />
        </mxCell>
        <mxCell id="kRjiYqjKtC23JgH-O0qc-250" value="FK" style="shape=partialRectangle;connectable=1;fillColor=none;top=0;left=0;bottom=0;right=0;editable=1;overflow=hidden;whiteSpace=wrap;html=1;movable=1;resizable=1;rotatable=1;deletable=1;locked=0;" parent="1" vertex="1">
          <mxGeometry x="130" y="890" width="30" height="30" as="geometry">
            <mxRectangle width="30" height="30" as="alternateBounds" />
          </mxGeometry>
        </mxCell>
        <mxCell id="kRjiYqjKtC23JgH-O0qc-257" style="edgeStyle=orthogonalEdgeStyle;rounded=0;orthogonalLoop=1;jettySize=auto;html=1;entryX=0;entryY=0.5;entryDx=0;entryDy=0;fontFamily=Helvetica;fontSize=12;fontColor=default;fontStyle=1;exitX=0.5;exitY=0;exitDx=0;exitDy=0;" parent="1" source="kRjiYqjKtC23JgH-O0qc-255" target="kRjiYqjKtC23JgH-O0qc-181" edge="1">
          <mxGeometry relative="1" as="geometry" />
        </mxCell>
        <mxCell id="kRjiYqjKtC23JgH-O0qc-255" value="" style="rhombus;whiteSpace=wrap;html=1;startSize=30;fontStyle=1;resizable=1;" parent="1" vertex="1">
          <mxGeometry x="770" y="712" width="80" height="80" as="geometry" />
        </mxCell>
        <mxCell id="kRjiYqjKtC23JgH-O0qc-281" value="DRI&lt;div&gt;(Delivery Receiving Item)&lt;/div&gt;" style="shape=table;startSize=30;container=1;collapsible=1;childLayout=tableLayout;fixedRows=1;rowLines=0;fontStyle=1;align=center;resizeLast=1;html=1;editable=1;movable=1;resizable=1;rotatable=1;deletable=1;locked=0;connectable=1;" parent="1" vertex="1">
          <mxGeometry x="1300" y="580.5" width="180" height="153" as="geometry">
            <mxRectangle x="70" y="70" width="70" height="30" as="alternateBounds" />
          </mxGeometry>
        </mxCell>
        <mxCell id="kRjiYqjKtC23JgH-O0qc-282" value="" style="shape=tableRow;horizontal=0;startSize=0;swimlaneHead=0;swimlaneBody=0;fillColor=none;collapsible=0;dropTarget=0;points=[[0,0.5],[1,0.5]];portConstraint=eastwest;top=0;left=0;right=0;bottom=1;movable=1;resizable=1;rotatable=1;deletable=1;editable=1;locked=0;connectable=1;" parent="kRjiYqjKtC23JgH-O0qc-281" vertex="1">
          <mxGeometry y="30" width="180" height="30" as="geometry" />
        </mxCell>
        <mxCell id="kRjiYqjKtC23JgH-O0qc-283" value="PK" style="shape=partialRectangle;connectable=1;fillColor=none;top=0;left=0;bottom=0;right=0;fontStyle=1;overflow=hidden;whiteSpace=wrap;html=1;movable=1;resizable=1;rotatable=1;deletable=1;editable=1;locked=0;" parent="kRjiYqjKtC23JgH-O0qc-282" vertex="1">
          <mxGeometry width="30" height="30" as="geometry">
            <mxRectangle width="30" height="30" as="alternateBounds" />
          </mxGeometry>
        </mxCell>
        <mxCell id="kRjiYqjKtC23JgH-O0qc-284" value="ID" style="shape=partialRectangle;connectable=1;fillColor=none;top=0;left=0;bottom=0;right=0;align=left;spacingLeft=6;fontStyle=5;overflow=hidden;whiteSpace=wrap;html=1;movable=1;resizable=1;rotatable=1;deletable=1;editable=1;locked=0;" parent="kRjiYqjKtC23JgH-O0qc-282" vertex="1">
          <mxGeometry x="30" width="150" height="30" as="geometry">
            <mxRectangle width="150" height="30" as="alternateBounds" />
          </mxGeometry>
        </mxCell>
        <mxCell id="kRjiYqjKtC23JgH-O0qc-285" value="" style="shape=tableRow;horizontal=0;startSize=0;swimlaneHead=0;swimlaneBody=0;fillColor=none;collapsible=0;dropTarget=0;points=[[0,0.5],[1,0.5]];portConstraint=eastwest;top=0;left=0;right=0;bottom=0;movable=1;resizable=1;rotatable=1;deletable=1;editable=1;locked=0;connectable=1;" parent="kRjiYqjKtC23JgH-O0qc-281" vertex="1">
          <mxGeometry y="60" width="180" height="30" as="geometry" />
        </mxCell>
        <mxCell id="kRjiYqjKtC23JgH-O0qc-286" value="FK" style="shape=partialRectangle;connectable=1;fillColor=none;top=0;left=0;bottom=0;right=0;editable=1;overflow=hidden;whiteSpace=wrap;html=1;movable=1;resizable=1;rotatable=1;deletable=1;locked=0;" parent="kRjiYqjKtC23JgH-O0qc-285" vertex="1">
          <mxGeometry width="30" height="30" as="geometry">
            <mxRectangle width="30" height="30" as="alternateBounds" />
          </mxGeometry>
        </mxCell>
        <mxCell id="kRjiYqjKtC23JgH-O0qc-287" value="DDRNo" style="shape=partialRectangle;connectable=1;fillColor=none;top=0;left=0;bottom=0;right=0;align=left;spacingLeft=6;overflow=hidden;whiteSpace=wrap;html=1;movable=1;resizable=1;rotatable=1;deletable=1;editable=1;locked=0;" parent="kRjiYqjKtC23JgH-O0qc-285" vertex="1">
          <mxGeometry x="30" width="150" height="30" as="geometry">
            <mxRectangle width="150" height="30" as="alternateBounds" />
          </mxGeometry>
        </mxCell>
        <mxCell id="kRjiYqjKtC23JgH-O0qc-288" value="" style="shape=tableRow;horizontal=0;startSize=0;swimlaneHead=0;swimlaneBody=0;fillColor=none;collapsible=0;dropTarget=0;points=[[0,0.5],[1,0.5]];portConstraint=eastwest;top=0;left=0;right=0;bottom=0;movable=1;resizable=1;rotatable=1;deletable=1;editable=1;locked=0;connectable=1;" parent="kRjiYqjKtC23JgH-O0qc-281" vertex="1">
          <mxGeometry y="90" width="180" height="30" as="geometry" />
        </mxCell>
        <mxCell id="kRjiYqjKtC23JgH-O0qc-289" value="FK" style="shape=partialRectangle;connectable=1;fillColor=none;top=0;left=0;bottom=0;right=0;editable=1;overflow=hidden;whiteSpace=wrap;html=1;movable=1;resizable=1;rotatable=1;deletable=1;locked=0;" parent="kRjiYqjKtC23JgH-O0qc-288" vertex="1">
          <mxGeometry width="30" height="30" as="geometry">
            <mxRectangle width="30" height="30" as="alternateBounds" />
          </mxGeometry>
        </mxCell>
        <mxCell id="kRjiYqjKtC23JgH-O0qc-290" value="ItemNo" style="shape=partialRectangle;connectable=1;fillColor=none;top=0;left=0;bottom=0;right=0;align=left;spacingLeft=6;overflow=hidden;whiteSpace=wrap;html=1;movable=1;resizable=1;rotatable=1;deletable=1;editable=1;locked=0;" parent="kRjiYqjKtC23JgH-O0qc-288" vertex="1">
          <mxGeometry x="30" width="150" height="30" as="geometry">
            <mxRectangle width="150" height="30" as="alternateBounds" />
          </mxGeometry>
        </mxCell>
        <mxCell id="kRjiYqjKtC23JgH-O0qc-291" value="" style="shape=tableRow;horizontal=0;startSize=0;swimlaneHead=0;swimlaneBody=0;fillColor=none;collapsible=0;dropTarget=0;points=[[0,0.5],[1,0.5]];portConstraint=eastwest;top=0;left=0;right=0;bottom=0;movable=1;resizable=1;rotatable=1;deletable=1;editable=1;locked=0;connectable=1;" parent="kRjiYqjKtC23JgH-O0qc-281" vertex="1">
          <mxGeometry y="120" width="180" height="30" as="geometry" />
        </mxCell>
        <mxCell id="kRjiYqjKtC23JgH-O0qc-292" value="" style="shape=partialRectangle;connectable=1;fillColor=none;top=0;left=0;bottom=0;right=0;editable=1;overflow=hidden;whiteSpace=wrap;html=1;movable=1;resizable=1;rotatable=1;deletable=1;locked=0;" parent="kRjiYqjKtC23JgH-O0qc-291" vertex="1">
          <mxGeometry width="30" height="30" as="geometry">
            <mxRectangle width="30" height="30" as="alternateBounds" />
          </mxGeometry>
        </mxCell>
        <mxCell id="kRjiYqjKtC23JgH-O0qc-293" value="Qty" style="shape=partialRectangle;connectable=1;fillColor=none;top=0;left=0;bottom=0;right=0;align=left;spacingLeft=6;overflow=hidden;whiteSpace=wrap;html=1;movable=1;resizable=1;rotatable=1;deletable=1;editable=1;locked=0;" parent="kRjiYqjKtC23JgH-O0qc-291" vertex="1">
          <mxGeometry x="30" width="150" height="30" as="geometry">
            <mxRectangle width="150" height="30" as="alternateBounds" />
          </mxGeometry>
        </mxCell>
        <mxCell id="kRjiYqjKtC23JgH-O0qc-301" style="edgeStyle=orthogonalEdgeStyle;rounded=0;orthogonalLoop=1;jettySize=auto;html=1;entryX=1;entryY=0.5;entryDx=0;entryDy=0;fontFamily=Helvetica;fontSize=12;fontColor=default;fontStyle=1;exitX=0;exitY=0.5;exitDx=0;exitDy=0;" parent="1" source="kRjiYqjKtC23JgH-O0qc-295" target="kRjiYqjKtC23JgH-O0qc-191" edge="1">
          <mxGeometry relative="1" as="geometry" />
        </mxCell>
        <mxCell id="kRjiYqjKtC23JgH-O0qc-295" value="" style="rhombus;whiteSpace=wrap;html=1;startSize=30;fontStyle=1;resizable=1;" parent="1" vertex="1">
          <mxGeometry x="1150" y="622" width="80" height="80" as="geometry" />
        </mxCell>
        <mxCell id="kRjiYqjKtC23JgH-O0qc-297" value="" style="edgeStyle=orthogonalEdgeStyle;rounded=0;orthogonalLoop=1;jettySize=auto;html=1;fontFamily=Helvetica;fontSize=12;fontColor=default;fontStyle=1;exitX=1;exitY=0.5;exitDx=0;exitDy=0;" parent="1" target="kRjiYqjKtC23JgH-O0qc-162" edge="1">
          <mxGeometry relative="1" as="geometry">
            <mxPoint x="310" y="1304" as="sourcePoint" />
          </mxGeometry>
        </mxCell>
        <mxCell id="kRjiYqjKtC23JgH-O0qc-300" style="edgeStyle=orthogonalEdgeStyle;rounded=0;orthogonalLoop=1;jettySize=auto;html=1;entryX=0.5;entryY=1;entryDx=0;entryDy=0;fontFamily=Helvetica;fontSize=12;fontColor=default;fontStyle=1;exitX=1;exitY=0.5;exitDx=0;exitDy=0;" parent="1" source="kRjiYqjKtC23JgH-O0qc-299" target="kRjiYqjKtC23JgH-O0qc-293" edge="1">
          <mxGeometry relative="1" as="geometry">
            <Array as="points">
              <mxPoint x="1405" y="960" />
            </Array>
          </mxGeometry>
        </mxCell>
        <mxCell id="kRjiYqjKtC23JgH-O0qc-299" value="" style="rhombus;whiteSpace=wrap;html=1;startSize=30;fontStyle=1;resizable=1;" parent="1" vertex="1">
          <mxGeometry x="1210" y="920" width="80" height="80" as="geometry" />
        </mxCell>
        <mxCell id="kRjiYqjKtC23JgH-O0qc-298" style="edgeStyle=orthogonalEdgeStyle;rounded=0;orthogonalLoop=1;jettySize=auto;html=1;fontFamily=Helvetica;fontSize=12;fontColor=default;fontStyle=1;entryX=0.5;entryY=1;entryDx=0;entryDy=0;exitX=0.75;exitY=0;exitDx=0;exitDy=0;" parent="1" source="kRjiYqjKtC23JgH-O0qc-116" target="kRjiYqjKtC23JgH-O0qc-299" edge="1">
          <mxGeometry relative="1" as="geometry">
            <mxPoint x="380" y="1090" as="targetPoint" />
          </mxGeometry>
        </mxCell>
        <mxCell id="kRjiYqjKtC23JgH-O0qc-304" value="" style="rhombus;whiteSpace=wrap;html=1;startSize=30;fontStyle=1;resizable=1;" parent="1" vertex="1">
          <mxGeometry x="560" y="475" width="80" height="80" as="geometry" />
        </mxCell>
        <mxCell id="kRjiYqjKtC23JgH-O0qc-305" style="edgeStyle=orthogonalEdgeStyle;rounded=0;orthogonalLoop=1;jettySize=auto;html=1;entryX=0;entryY=0.5;entryDx=0;entryDy=0;fontFamily=Helvetica;fontSize=12;fontColor=default;fontStyle=1;exitX=0.5;exitY=1;exitDx=0;exitDy=0;" parent="1" source="kRjiYqjKtC23JgH-O0qc-2" target="kRjiYqjKtC23JgH-O0qc-304" edge="1">
          <mxGeometry relative="1" as="geometry" />
        </mxCell>
        <mxCell id="kRjiYqjKtC23JgH-O0qc-306" style="edgeStyle=orthogonalEdgeStyle;rounded=0;orthogonalLoop=1;jettySize=auto;html=1;entryX=0.006;entryY=0.055;entryDx=0;entryDy=0;entryPerimeter=0;fontFamily=Helvetica;fontSize=12;fontColor=default;fontStyle=1;" parent="1" source="kRjiYqjKtC23JgH-O0qc-304" target="kRjiYqjKtC23JgH-O0qc-176" edge="1">
          <mxGeometry relative="1" as="geometry" />
        </mxCell>
        <mxCell id="kRjiYqjKtC23JgH-O0qc-310" value="" style="group" parent="1" vertex="1" connectable="0">
          <mxGeometry x="520" y="165" width="180" height="260" as="geometry" />
        </mxCell>
        <mxCell id="kRjiYqjKtC23JgH-O0qc-54" value="WAREHOUSE" style="shape=table;startSize=30;container=1;collapsible=1;childLayout=tableLayout;fixedRows=1;rowLines=0;fontStyle=1;align=center;resizeLast=1;html=1;editable=1;movable=1;resizable=1;rotatable=1;deletable=1;locked=0;connectable=1;" parent="kRjiYqjKtC23JgH-O0qc-310" vertex="1">
          <mxGeometry width="180" height="260" as="geometry">
            <mxRectangle x="70" y="70" width="70" height="30" as="alternateBounds" />
          </mxGeometry>
        </mxCell>
        <mxCell id="kRjiYqjKtC23JgH-O0qc-55" value="" style="shape=tableRow;horizontal=0;startSize=0;swimlaneHead=0;swimlaneBody=0;fillColor=none;collapsible=0;dropTarget=0;points=[[0,0.5],[1,0.5]];portConstraint=eastwest;top=0;left=0;right=0;bottom=1;movable=1;resizable=1;rotatable=1;deletable=1;editable=1;locked=0;connectable=1;" parent="kRjiYqjKtC23JgH-O0qc-54" vertex="1">
          <mxGeometry y="30" width="180" height="30" as="geometry" />
        </mxCell>
        <mxCell id="kRjiYqjKtC23JgH-O0qc-56" value="PK" style="shape=partialRectangle;connectable=1;fillColor=none;top=0;left=0;bottom=0;right=0;fontStyle=1;overflow=hidden;whiteSpace=wrap;html=1;movable=1;resizable=1;rotatable=1;deletable=1;editable=1;locked=0;" parent="kRjiYqjKtC23JgH-O0qc-55" vertex="1">
          <mxGeometry width="30" height="30" as="geometry">
            <mxRectangle width="30" height="30" as="alternateBounds" />
          </mxGeometry>
        </mxCell>
        <mxCell id="kRjiYqjKtC23JgH-O0qc-57" value="WarehouseNo" style="shape=partialRectangle;connectable=1;fillColor=none;top=0;left=0;bottom=0;right=0;align=left;spacingLeft=6;fontStyle=5;overflow=hidden;whiteSpace=wrap;html=1;movable=1;resizable=1;rotatable=1;deletable=1;editable=1;locked=0;" parent="kRjiYqjKtC23JgH-O0qc-55" vertex="1">
          <mxGeometry x="30" width="150" height="30" as="geometry">
            <mxRectangle width="150" height="30" as="alternateBounds" />
          </mxGeometry>
        </mxCell>
        <mxCell id="kRjiYqjKtC23JgH-O0qc-58" value="" style="shape=tableRow;horizontal=0;startSize=0;swimlaneHead=0;swimlaneBody=0;fillColor=none;collapsible=0;dropTarget=0;points=[[0,0.5],[1,0.5]];portConstraint=eastwest;top=0;left=0;right=0;bottom=0;movable=1;resizable=1;rotatable=1;deletable=1;editable=1;locked=0;connectable=1;" parent="kRjiYqjKtC23JgH-O0qc-54" vertex="1">
          <mxGeometry y="60" width="180" height="30" as="geometry" />
        </mxCell>
        <mxCell id="kRjiYqjKtC23JgH-O0qc-59" value="" style="shape=partialRectangle;connectable=1;fillColor=none;top=0;left=0;bottom=0;right=0;editable=1;overflow=hidden;whiteSpace=wrap;html=1;movable=1;resizable=1;rotatable=1;deletable=1;locked=0;" parent="kRjiYqjKtC23JgH-O0qc-58" vertex="1">
          <mxGeometry width="30" height="30" as="geometry">
            <mxRectangle width="30" height="30" as="alternateBounds" />
          </mxGeometry>
        </mxCell>
        <mxCell id="kRjiYqjKtC23JgH-O0qc-60" value="Warehouse" style="shape=partialRectangle;connectable=1;fillColor=none;top=0;left=0;bottom=0;right=0;align=left;spacingLeft=6;overflow=hidden;whiteSpace=wrap;html=1;movable=1;resizable=1;rotatable=1;deletable=1;editable=1;locked=0;" parent="kRjiYqjKtC23JgH-O0qc-58" vertex="1">
          <mxGeometry x="30" width="150" height="30" as="geometry">
            <mxRectangle width="150" height="30" as="alternateBounds" />
          </mxGeometry>
        </mxCell>
        <mxCell id="kRjiYqjKtC23JgH-O0qc-61" value="" style="shape=tableRow;horizontal=0;startSize=0;swimlaneHead=0;swimlaneBody=0;fillColor=none;collapsible=0;dropTarget=0;points=[[0,0.5],[1,0.5]];portConstraint=eastwest;top=0;left=0;right=0;bottom=0;movable=1;resizable=1;rotatable=1;deletable=1;editable=1;locked=0;connectable=1;" parent="kRjiYqjKtC23JgH-O0qc-54" vertex="1">
          <mxGeometry y="90" width="180" height="30" as="geometry" />
        </mxCell>
        <mxCell id="kRjiYqjKtC23JgH-O0qc-62" value="" style="shape=partialRectangle;connectable=1;fillColor=none;top=0;left=0;bottom=0;right=0;editable=1;overflow=hidden;whiteSpace=wrap;html=1;movable=1;resizable=1;rotatable=1;deletable=1;locked=0;" parent="kRjiYqjKtC23JgH-O0qc-61" vertex="1">
          <mxGeometry width="30" height="30" as="geometry">
            <mxRectangle width="30" height="30" as="alternateBounds" />
          </mxGeometry>
        </mxCell>
        <mxCell id="kRjiYqjKtC23JgH-O0qc-63" value="Address" style="shape=partialRectangle;connectable=1;fillColor=none;top=0;left=0;bottom=0;right=0;align=left;spacingLeft=6;overflow=hidden;whiteSpace=wrap;html=1;movable=1;resizable=1;rotatable=1;deletable=1;editable=1;locked=0;" parent="kRjiYqjKtC23JgH-O0qc-61" vertex="1">
          <mxGeometry x="30" width="150" height="30" as="geometry">
            <mxRectangle width="150" height="30" as="alternateBounds" />
          </mxGeometry>
        </mxCell>
        <mxCell id="kRjiYqjKtC23JgH-O0qc-64" value="" style="shape=tableRow;horizontal=0;startSize=0;swimlaneHead=0;swimlaneBody=0;fillColor=none;collapsible=0;dropTarget=0;points=[[0,0.5],[1,0.5]];portConstraint=eastwest;top=0;left=0;right=0;bottom=0;movable=1;resizable=1;rotatable=1;deletable=1;editable=1;locked=0;connectable=1;" parent="kRjiYqjKtC23JgH-O0qc-54" vertex="1">
          <mxGeometry y="120" width="180" height="30" as="geometry" />
        </mxCell>
        <mxCell id="kRjiYqjKtC23JgH-O0qc-65" value="" style="shape=partialRectangle;connectable=1;fillColor=none;top=0;left=0;bottom=0;right=0;editable=1;overflow=hidden;whiteSpace=wrap;html=1;movable=1;resizable=1;rotatable=1;deletable=1;locked=0;" parent="kRjiYqjKtC23JgH-O0qc-64" vertex="1">
          <mxGeometry width="30" height="30" as="geometry">
            <mxRectangle width="30" height="30" as="alternateBounds" />
          </mxGeometry>
        </mxCell>
        <mxCell id="kRjiYqjKtC23JgH-O0qc-66" value="UID" style="shape=partialRectangle;connectable=1;fillColor=none;top=0;left=0;bottom=0;right=0;align=left;spacingLeft=6;overflow=hidden;whiteSpace=wrap;html=1;movable=1;resizable=1;rotatable=1;deletable=1;editable=1;locked=0;" parent="kRjiYqjKtC23JgH-O0qc-64" vertex="1">
          <mxGeometry x="30" width="150" height="30" as="geometry">
            <mxRectangle width="150" height="30" as="alternateBounds" />
          </mxGeometry>
        </mxCell>
        <mxCell id="kRjiYqjKtC23JgH-O0qc-77" value="" style="shape=tableRow;horizontal=0;startSize=0;swimlaneHead=0;swimlaneBody=0;fillColor=none;collapsible=0;dropTarget=0;points=[[0,0.5],[1,0.5]];portConstraint=eastwest;top=0;left=0;right=0;bottom=0;movable=1;resizable=1;rotatable=1;deletable=1;editable=1;locked=0;connectable=1;" parent="kRjiYqjKtC23JgH-O0qc-310" vertex="1">
          <mxGeometry y="155" width="180" height="30" as="geometry" />
        </mxCell>
        <mxCell id="kRjiYqjKtC23JgH-O0qc-78" value="" style="shape=partialRectangle;connectable=1;fillColor=none;top=0;left=0;bottom=0;right=0;editable=1;overflow=hidden;whiteSpace=wrap;html=1;movable=1;resizable=1;rotatable=1;deletable=1;locked=0;" parent="kRjiYqjKtC23JgH-O0qc-77" vertex="1">
          <mxGeometry width="30" height="30" as="geometry">
            <mxRectangle width="30" height="30" as="alternateBounds" />
          </mxGeometry>
        </mxCell>
        <mxCell id="kRjiYqjKtC23JgH-O0qc-79" value="Date_Created" style="shape=partialRectangle;connectable=1;fillColor=none;top=0;left=0;bottom=0;right=0;align=left;spacingLeft=6;overflow=hidden;whiteSpace=wrap;html=1;movable=1;resizable=1;rotatable=1;deletable=1;editable=1;locked=0;" parent="kRjiYqjKtC23JgH-O0qc-77" vertex="1">
          <mxGeometry x="30" width="150" height="30" as="geometry">
            <mxRectangle width="150" height="30" as="alternateBounds" />
          </mxGeometry>
        </mxCell>
        <mxCell id="kRjiYqjKtC23JgH-O0qc-80" value="" style="shape=tableRow;horizontal=0;startSize=0;swimlaneHead=0;swimlaneBody=0;fillColor=none;collapsible=0;dropTarget=0;points=[[0,0.5],[1,0.5]];portConstraint=eastwest;top=0;left=0;right=0;bottom=0;movable=1;resizable=1;rotatable=1;deletable=1;editable=1;locked=0;connectable=1;" parent="kRjiYqjKtC23JgH-O0qc-310" vertex="1">
          <mxGeometry y="185" width="180" height="30" as="geometry" />
        </mxCell>
        <mxCell id="kRjiYqjKtC23JgH-O0qc-81" value="" style="shape=partialRectangle;connectable=1;fillColor=none;top=0;left=0;bottom=0;right=0;editable=1;overflow=hidden;whiteSpace=wrap;html=1;movable=1;resizable=1;rotatable=1;deletable=1;locked=0;" parent="kRjiYqjKtC23JgH-O0qc-80" vertex="1">
          <mxGeometry width="30" height="30" as="geometry">
            <mxRectangle width="30" height="30" as="alternateBounds" />
          </mxGeometry>
        </mxCell>
        <mxCell id="kRjiYqjKtC23JgH-O0qc-82" value="Date_Updated" style="shape=partialRectangle;connectable=1;fillColor=none;top=0;left=0;bottom=0;right=0;align=left;spacingLeft=6;overflow=hidden;whiteSpace=wrap;html=1;movable=1;resizable=1;rotatable=1;deletable=1;editable=1;locked=0;" parent="kRjiYqjKtC23JgH-O0qc-80" vertex="1">
          <mxGeometry x="30" width="150" height="30" as="geometry">
            <mxRectangle width="150" height="30" as="alternateBounds" />
          </mxGeometry>
        </mxCell>
        <mxCell id="kRjiYqjKtC23JgH-O0qc-311" value="" style="rhombus;whiteSpace=wrap;html=1;startSize=30;fontStyle=1;resizable=1;" parent="1" vertex="1">
          <mxGeometry x="860" y="285" width="80" height="80" as="geometry" />
        </mxCell>
        <mxCell id="kRjiYqjKtC23JgH-O0qc-312" value="" style="edgeStyle=orthogonalEdgeStyle;rounded=0;orthogonalLoop=1;jettySize=auto;html=1;fontFamily=Helvetica;fontSize=12;fontColor=default;fontStyle=1;exitX=1;exitY=0.5;exitDx=0;exitDy=0;" parent="1" source="kRjiYqjKtC23JgH-O0qc-57" target="kRjiYqjKtC23JgH-O0qc-311" edge="1">
          <mxGeometry relative="1" as="geometry" />
        </mxCell>
        <mxCell id="kRjiYqjKtC23JgH-O0qc-315" style="edgeStyle=orthogonalEdgeStyle;rounded=0;orthogonalLoop=1;jettySize=auto;html=1;entryX=1;entryY=0.5;entryDx=0;entryDy=0;fontFamily=Helvetica;fontSize=12;fontColor=default;fontStyle=1;" parent="1" source="kRjiYqjKtC23JgH-O0qc-283" target="kRjiYqjKtC23JgH-O0qc-295" edge="1">
          <mxGeometry relative="1" as="geometry" />
        </mxCell>
        <mxCell id="kRjiYqjKtC23JgH-O0qc-371" value="" style="edgeStyle=orthogonalEdgeStyle;rounded=0;orthogonalLoop=1;jettySize=auto;html=1;fontFamily=Helvetica;fontSize=12;fontColor=default;fontStyle=1;" parent="1" source="kRjiYqjKtC23JgH-O0qc-336" target="kRjiYqjKtC23JgH-O0qc-370" edge="1">
          <mxGeometry relative="1" as="geometry" />
        </mxCell>
        <mxCell id="kRjiYqjKtC23JgH-O0qc-336" value="&lt;div&gt;&amp;nbsp;SI&lt;/div&gt;&lt;div&gt;(Stock Issuance)&lt;/div&gt;" style="shape=table;startSize=30;container=1;collapsible=1;childLayout=tableLayout;fixedRows=1;rowLines=0;fontStyle=1;align=center;resizeLast=1;html=1;editable=1;movable=1;resizable=1;rotatable=1;deletable=1;locked=0;connectable=1;" parent="1" vertex="1">
          <mxGeometry x="1120" y="280" width="180" height="153" as="geometry">
            <mxRectangle x="70" y="70" width="70" height="30" as="alternateBounds" />
          </mxGeometry>
        </mxCell>
        <mxCell id="kRjiYqjKtC23JgH-O0qc-337" value="" style="shape=tableRow;horizontal=0;startSize=0;swimlaneHead=0;swimlaneBody=0;fillColor=none;collapsible=0;dropTarget=0;points=[[0,0.5],[1,0.5]];portConstraint=eastwest;top=0;left=0;right=0;bottom=1;movable=1;resizable=1;rotatable=1;deletable=1;editable=1;locked=0;connectable=1;" parent="kRjiYqjKtC23JgH-O0qc-336" vertex="1">
          <mxGeometry y="30" width="180" height="30" as="geometry" />
        </mxCell>
        <mxCell id="kRjiYqjKtC23JgH-O0qc-338" value="PK" style="shape=partialRectangle;connectable=1;fillColor=none;top=0;left=0;bottom=0;right=0;fontStyle=1;overflow=hidden;whiteSpace=wrap;html=1;movable=1;resizable=1;rotatable=1;deletable=1;editable=1;locked=0;" parent="kRjiYqjKtC23JgH-O0qc-337" vertex="1">
          <mxGeometry width="30" height="30" as="geometry">
            <mxRectangle width="30" height="30" as="alternateBounds" />
          </mxGeometry>
        </mxCell>
        <mxCell id="kRjiYqjKtC23JgH-O0qc-339" value="SINo" style="shape=partialRectangle;connectable=1;fillColor=none;top=0;left=0;bottom=0;right=0;align=left;spacingLeft=6;fontStyle=5;overflow=hidden;whiteSpace=wrap;html=1;movable=1;resizable=1;rotatable=1;deletable=1;editable=1;locked=0;" parent="kRjiYqjKtC23JgH-O0qc-337" vertex="1">
          <mxGeometry x="30" width="150" height="30" as="geometry">
            <mxRectangle width="150" height="30" as="alternateBounds" />
          </mxGeometry>
        </mxCell>
        <mxCell id="kRjiYqjKtC23JgH-O0qc-340" value="" style="shape=tableRow;horizontal=0;startSize=0;swimlaneHead=0;swimlaneBody=0;fillColor=none;collapsible=0;dropTarget=0;points=[[0,0.5],[1,0.5]];portConstraint=eastwest;top=0;left=0;right=0;bottom=0;movable=1;resizable=1;rotatable=1;deletable=1;editable=1;locked=0;connectable=1;" parent="kRjiYqjKtC23JgH-O0qc-336" vertex="1">
          <mxGeometry y="60" width="180" height="30" as="geometry" />
        </mxCell>
        <mxCell id="kRjiYqjKtC23JgH-O0qc-341" value="FK" style="shape=partialRectangle;connectable=1;fillColor=none;top=0;left=0;bottom=0;right=0;editable=1;overflow=hidden;whiteSpace=wrap;html=1;movable=1;resizable=1;rotatable=1;deletable=1;locked=0;" parent="kRjiYqjKtC23JgH-O0qc-340" vertex="1">
          <mxGeometry width="30" height="30" as="geometry">
            <mxRectangle width="30" height="30" as="alternateBounds" />
          </mxGeometry>
        </mxCell>
        <mxCell id="kRjiYqjKtC23JgH-O0qc-342" value="DDRNo" style="shape=partialRectangle;connectable=1;fillColor=none;top=0;left=0;bottom=0;right=0;align=left;spacingLeft=6;overflow=hidden;whiteSpace=wrap;html=1;movable=1;resizable=1;rotatable=1;deletable=1;editable=1;locked=0;" parent="kRjiYqjKtC23JgH-O0qc-340" vertex="1">
          <mxGeometry x="30" width="150" height="30" as="geometry">
            <mxRectangle width="150" height="30" as="alternateBounds" />
          </mxGeometry>
        </mxCell>
        <mxCell id="kRjiYqjKtC23JgH-O0qc-343" value="" style="shape=tableRow;horizontal=0;startSize=0;swimlaneHead=0;swimlaneBody=0;fillColor=none;collapsible=0;dropTarget=0;points=[[0,0.5],[1,0.5]];portConstraint=eastwest;top=0;left=0;right=0;bottom=0;movable=1;resizable=1;rotatable=1;deletable=1;editable=1;locked=0;connectable=1;" parent="kRjiYqjKtC23JgH-O0qc-336" vertex="1">
          <mxGeometry y="90" width="180" height="30" as="geometry" />
        </mxCell>
        <mxCell id="kRjiYqjKtC23JgH-O0qc-344" value="FK" style="shape=partialRectangle;connectable=1;fillColor=none;top=0;left=0;bottom=0;right=0;editable=1;overflow=hidden;whiteSpace=wrap;html=1;movable=1;resizable=1;rotatable=1;deletable=1;locked=0;" parent="kRjiYqjKtC23JgH-O0qc-343" vertex="1">
          <mxGeometry width="30" height="30" as="geometry">
            <mxRectangle width="30" height="30" as="alternateBounds" />
          </mxGeometry>
        </mxCell>
        <mxCell id="kRjiYqjKtC23JgH-O0qc-345" value="UID" style="shape=partialRectangle;connectable=1;fillColor=none;top=0;left=0;bottom=0;right=0;align=left;spacingLeft=6;overflow=hidden;whiteSpace=wrap;html=1;movable=1;resizable=1;rotatable=1;deletable=1;editable=1;locked=0;" parent="kRjiYqjKtC23JgH-O0qc-343" vertex="1">
          <mxGeometry x="30" width="150" height="30" as="geometry">
            <mxRectangle width="150" height="30" as="alternateBounds" />
          </mxGeometry>
        </mxCell>
        <mxCell id="kRjiYqjKtC23JgH-O0qc-346" value="" style="shape=tableRow;horizontal=0;startSize=0;swimlaneHead=0;swimlaneBody=0;fillColor=none;collapsible=0;dropTarget=0;points=[[0,0.5],[1,0.5]];portConstraint=eastwest;top=0;left=0;right=0;bottom=0;movable=1;resizable=1;rotatable=1;deletable=1;editable=1;locked=0;connectable=1;" parent="kRjiYqjKtC23JgH-O0qc-336" vertex="1">
          <mxGeometry y="120" width="180" height="30" as="geometry" />
        </mxCell>
        <mxCell id="kRjiYqjKtC23JgH-O0qc-347" value="FK" style="shape=partialRectangle;connectable=1;fillColor=none;top=0;left=0;bottom=0;right=0;editable=1;overflow=hidden;whiteSpace=wrap;html=1;movable=1;resizable=1;rotatable=1;deletable=1;locked=0;" parent="kRjiYqjKtC23JgH-O0qc-346" vertex="1">
          <mxGeometry width="30" height="30" as="geometry">
            <mxRectangle width="30" height="30" as="alternateBounds" />
          </mxGeometry>
        </mxCell>
        <mxCell id="kRjiYqjKtC23JgH-O0qc-348" value="WarehouseNo" style="shape=partialRectangle;connectable=1;fillColor=none;top=0;left=0;bottom=0;right=0;align=left;spacingLeft=6;overflow=hidden;whiteSpace=wrap;html=1;movable=1;resizable=1;rotatable=1;deletable=1;editable=1;locked=0;" parent="kRjiYqjKtC23JgH-O0qc-346" vertex="1">
          <mxGeometry x="30" width="150" height="30" as="geometry">
            <mxRectangle width="150" height="30" as="alternateBounds" />
          </mxGeometry>
        </mxCell>
        <mxCell id="kRjiYqjKtC23JgH-O0qc-352" value="&lt;div&gt;&amp;nbsp;SII&lt;/div&gt;&lt;div&gt;(Stock Issuance Item)&lt;/div&gt;" style="shape=table;startSize=30;container=1;collapsible=1;childLayout=tableLayout;fixedRows=1;rowLines=0;fontStyle=1;align=center;resizeLast=1;html=1;editable=1;movable=1;resizable=1;rotatable=1;deletable=1;locked=0;connectable=1;" parent="1" vertex="1">
          <mxGeometry x="1530" y="250.5" width="180" height="153" as="geometry">
            <mxRectangle x="70" y="70" width="70" height="30" as="alternateBounds" />
          </mxGeometry>
        </mxCell>
        <mxCell id="kRjiYqjKtC23JgH-O0qc-353" value="" style="shape=tableRow;horizontal=0;startSize=0;swimlaneHead=0;swimlaneBody=0;fillColor=none;collapsible=0;dropTarget=0;points=[[0,0.5],[1,0.5]];portConstraint=eastwest;top=0;left=0;right=0;bottom=1;movable=1;resizable=1;rotatable=1;deletable=1;editable=1;locked=0;connectable=1;" parent="kRjiYqjKtC23JgH-O0qc-352" vertex="1">
          <mxGeometry y="30" width="180" height="30" as="geometry" />
        </mxCell>
        <mxCell id="kRjiYqjKtC23JgH-O0qc-354" value="PK" style="shape=partialRectangle;connectable=1;fillColor=none;top=0;left=0;bottom=0;right=0;fontStyle=1;overflow=hidden;whiteSpace=wrap;html=1;movable=1;resizable=1;rotatable=1;deletable=1;editable=1;locked=0;" parent="kRjiYqjKtC23JgH-O0qc-353" vertex="1">
          <mxGeometry width="30" height="30" as="geometry">
            <mxRectangle width="30" height="30" as="alternateBounds" />
          </mxGeometry>
        </mxCell>
        <mxCell id="kRjiYqjKtC23JgH-O0qc-355" value="ID" style="shape=partialRectangle;connectable=1;fillColor=none;top=0;left=0;bottom=0;right=0;align=left;spacingLeft=6;fontStyle=5;overflow=hidden;whiteSpace=wrap;html=1;movable=1;resizable=1;rotatable=1;deletable=1;editable=1;locked=0;" parent="kRjiYqjKtC23JgH-O0qc-353" vertex="1">
          <mxGeometry x="30" width="150" height="30" as="geometry">
            <mxRectangle width="150" height="30" as="alternateBounds" />
          </mxGeometry>
        </mxCell>
        <mxCell id="kRjiYqjKtC23JgH-O0qc-356" value="" style="shape=tableRow;horizontal=0;startSize=0;swimlaneHead=0;swimlaneBody=0;fillColor=none;collapsible=0;dropTarget=0;points=[[0,0.5],[1,0.5]];portConstraint=eastwest;top=0;left=0;right=0;bottom=0;movable=1;resizable=1;rotatable=1;deletable=1;editable=1;locked=0;connectable=1;" parent="kRjiYqjKtC23JgH-O0qc-352" vertex="1">
          <mxGeometry y="60" width="180" height="30" as="geometry" />
        </mxCell>
        <mxCell id="kRjiYqjKtC23JgH-O0qc-357" value="FK" style="shape=partialRectangle;connectable=1;fillColor=none;top=0;left=0;bottom=0;right=0;editable=1;overflow=hidden;whiteSpace=wrap;html=1;movable=1;resizable=1;rotatable=1;deletable=1;locked=0;" parent="kRjiYqjKtC23JgH-O0qc-356" vertex="1">
          <mxGeometry width="30" height="30" as="geometry">
            <mxRectangle width="30" height="30" as="alternateBounds" />
          </mxGeometry>
        </mxCell>
        <mxCell id="kRjiYqjKtC23JgH-O0qc-358" value="SINo" style="shape=partialRectangle;connectable=1;fillColor=none;top=0;left=0;bottom=0;right=0;align=left;spacingLeft=6;overflow=hidden;whiteSpace=wrap;html=1;movable=1;resizable=1;rotatable=1;deletable=1;editable=1;locked=0;" parent="kRjiYqjKtC23JgH-O0qc-356" vertex="1">
          <mxGeometry x="30" width="150" height="30" as="geometry">
            <mxRectangle width="150" height="30" as="alternateBounds" />
          </mxGeometry>
        </mxCell>
        <mxCell id="kRjiYqjKtC23JgH-O0qc-359" value="" style="shape=tableRow;horizontal=0;startSize=0;swimlaneHead=0;swimlaneBody=0;fillColor=none;collapsible=0;dropTarget=0;points=[[0,0.5],[1,0.5]];portConstraint=eastwest;top=0;left=0;right=0;bottom=0;movable=1;resizable=1;rotatable=1;deletable=1;editable=1;locked=0;connectable=1;" parent="kRjiYqjKtC23JgH-O0qc-352" vertex="1">
          <mxGeometry y="90" width="180" height="30" as="geometry" />
        </mxCell>
        <mxCell id="kRjiYqjKtC23JgH-O0qc-360" value="FK" style="shape=partialRectangle;connectable=1;fillColor=none;top=0;left=0;bottom=0;right=0;editable=1;overflow=hidden;whiteSpace=wrap;html=1;movable=1;resizable=1;rotatable=1;deletable=1;locked=0;" parent="kRjiYqjKtC23JgH-O0qc-359" vertex="1">
          <mxGeometry width="30" height="30" as="geometry">
            <mxRectangle width="30" height="30" as="alternateBounds" />
          </mxGeometry>
        </mxCell>
        <mxCell id="kRjiYqjKtC23JgH-O0qc-361" value="ItemNo" style="shape=partialRectangle;connectable=1;fillColor=none;top=0;left=0;bottom=0;right=0;align=left;spacingLeft=6;overflow=hidden;whiteSpace=wrap;html=1;movable=1;resizable=1;rotatable=1;deletable=1;editable=1;locked=0;" parent="kRjiYqjKtC23JgH-O0qc-359" vertex="1">
          <mxGeometry x="30" width="150" height="30" as="geometry">
            <mxRectangle width="150" height="30" as="alternateBounds" />
          </mxGeometry>
        </mxCell>
        <mxCell id="kRjiYqjKtC23JgH-O0qc-362" value="" style="shape=tableRow;horizontal=0;startSize=0;swimlaneHead=0;swimlaneBody=0;fillColor=none;collapsible=0;dropTarget=0;points=[[0,0.5],[1,0.5]];portConstraint=eastwest;top=0;left=0;right=0;bottom=0;movable=1;resizable=1;rotatable=1;deletable=1;editable=1;locked=0;connectable=1;" parent="kRjiYqjKtC23JgH-O0qc-352" vertex="1">
          <mxGeometry y="120" width="180" height="30" as="geometry" />
        </mxCell>
        <mxCell id="kRjiYqjKtC23JgH-O0qc-363" value="" style="shape=partialRectangle;connectable=1;fillColor=none;top=0;left=0;bottom=0;right=0;editable=1;overflow=hidden;whiteSpace=wrap;html=1;movable=1;resizable=1;rotatable=1;deletable=1;locked=0;" parent="kRjiYqjKtC23JgH-O0qc-362" vertex="1">
          <mxGeometry width="30" height="30" as="geometry">
            <mxRectangle width="30" height="30" as="alternateBounds" />
          </mxGeometry>
        </mxCell>
        <mxCell id="kRjiYqjKtC23JgH-O0qc-364" value="Qty" style="shape=partialRectangle;connectable=1;fillColor=none;top=0;left=0;bottom=0;right=0;align=left;spacingLeft=6;overflow=hidden;whiteSpace=wrap;html=1;movable=1;resizable=1;rotatable=1;deletable=1;editable=1;locked=0;" parent="kRjiYqjKtC23JgH-O0qc-362" vertex="1">
          <mxGeometry x="30" width="150" height="30" as="geometry">
            <mxRectangle width="150" height="30" as="alternateBounds" />
          </mxGeometry>
        </mxCell>
        <mxCell id="kRjiYqjKtC23JgH-O0qc-368" style="edgeStyle=orthogonalEdgeStyle;rounded=0;orthogonalLoop=1;jettySize=auto;html=1;entryX=1;entryY=0.5;entryDx=0;entryDy=0;fontFamily=Helvetica;fontSize=12;fontColor=default;fontStyle=1;" parent="1" source="kRjiYqjKtC23JgH-O0qc-366" target="kRjiYqjKtC23JgH-O0qc-339" edge="1">
          <mxGeometry relative="1" as="geometry" />
        </mxCell>
        <mxCell id="kRjiYqjKtC23JgH-O0qc-366" value="" style="rhombus;whiteSpace=wrap;html=1;startSize=30;fontStyle=1;resizable=1;" parent="1" vertex="1">
          <mxGeometry x="1360" y="285" width="80" height="80" as="geometry" />
        </mxCell>
        <mxCell id="kRjiYqjKtC23JgH-O0qc-369" style="edgeStyle=orthogonalEdgeStyle;rounded=0;orthogonalLoop=1;jettySize=auto;html=1;entryX=1;entryY=0.5;entryDx=0;entryDy=0;fontFamily=Helvetica;fontSize=12;fontColor=default;fontStyle=1;" parent="1" source="kRjiYqjKtC23JgH-O0qc-357" target="kRjiYqjKtC23JgH-O0qc-366" edge="1">
          <mxGeometry relative="1" as="geometry" />
        </mxCell>
        <mxCell id="kRjiYqjKtC23JgH-O0qc-372" style="edgeStyle=orthogonalEdgeStyle;rounded=0;orthogonalLoop=1;jettySize=auto;html=1;entryX=0.5;entryY=0;entryDx=0;entryDy=0;fontFamily=Helvetica;fontSize=12;fontColor=default;fontStyle=1;" parent="1" source="kRjiYqjKtC23JgH-O0qc-370" target="kRjiYqjKtC23JgH-O0qc-176" edge="1">
          <mxGeometry relative="1" as="geometry" />
        </mxCell>
        <mxCell id="kRjiYqjKtC23JgH-O0qc-370" value="" style="rhombus;whiteSpace=wrap;html=1;startSize=30;fontStyle=1;resizable=1;" parent="1" vertex="1">
          <mxGeometry x="960" y="365" width="80" height="80" as="geometry" />
        </mxCell>
        <mxCell id="kRjiYqjKtC23JgH-O0qc-373" style="edgeStyle=orthogonalEdgeStyle;rounded=0;orthogonalLoop=1;jettySize=auto;html=1;entryX=0;entryY=0.5;entryDx=0;entryDy=0;fontFamily=Helvetica;fontSize=12;fontColor=default;fontStyle=1;" parent="1" source="kRjiYqjKtC23JgH-O0qc-311" target="kRjiYqjKtC23JgH-O0qc-338" edge="1">
          <mxGeometry relative="1" as="geometry" />
        </mxCell>
        <mxCell id="kRjiYqjKtC23JgH-O0qc-378" style="edgeStyle=orthogonalEdgeStyle;rounded=0;orthogonalLoop=1;jettySize=auto;html=1;entryX=0.25;entryY=0;entryDx=0;entryDy=0;fontFamily=Helvetica;fontSize=12;fontColor=default;fontStyle=1;" parent="1" source="kRjiYqjKtC23JgH-O0qc-376" target="kRjiYqjKtC23JgH-O0qc-176" edge="1">
          <mxGeometry relative="1" as="geometry" />
        </mxCell>
        <mxCell id="kRjiYqjKtC23JgH-O0qc-376" value="" style="rhombus;whiteSpace=wrap;html=1;startSize=30;fontStyle=1;resizable=1;" parent="1" vertex="1">
          <mxGeometry x="770" y="410" width="80" height="80" as="geometry" />
        </mxCell>
        <mxCell id="kRjiYqjKtC23JgH-O0qc-377" style="edgeStyle=orthogonalEdgeStyle;rounded=0;orthogonalLoop=1;jettySize=auto;html=1;entryX=0;entryY=0.5;entryDx=0;entryDy=0;fontFamily=Helvetica;fontSize=12;fontColor=default;fontStyle=1;exitX=0.5;exitY=1;exitDx=0;exitDy=0;" parent="1" source="kRjiYqjKtC23JgH-O0qc-54" target="kRjiYqjKtC23JgH-O0qc-376" edge="1">
          <mxGeometry relative="1" as="geometry" />
        </mxCell>
        <mxCell id="kRjiYqjKtC23JgH-O0qc-382" style="edgeStyle=orthogonalEdgeStyle;rounded=0;orthogonalLoop=1;jettySize=auto;html=1;entryX=0.5;entryY=1;entryDx=0;entryDy=0;fontFamily=Helvetica;fontSize=12;fontColor=default;fontStyle=1;" parent="1" source="kRjiYqjKtC23JgH-O0qc-381" target="kRjiYqjKtC23JgH-O0qc-352" edge="1">
          <mxGeometry relative="1" as="geometry" />
        </mxCell>
        <mxCell id="kRjiYqjKtC23JgH-O0qc-381" value="" style="rhombus;whiteSpace=wrap;html=1;startSize=30;fontStyle=1;resizable=1;" parent="1" vertex="1">
          <mxGeometry x="1580" y="930" width="80" height="80" as="geometry" />
        </mxCell>
        <mxCell id="kRjiYqjKtC23JgH-O0qc-380" style="edgeStyle=orthogonalEdgeStyle;rounded=0;orthogonalLoop=1;jettySize=auto;html=1;fontFamily=Helvetica;fontSize=12;fontColor=default;fontStyle=1;exitX=1;exitY=0.75;exitDx=0;exitDy=0;entryX=0.5;entryY=1;entryDx=0;entryDy=0;" parent="1" source="kRjiYqjKtC23JgH-O0qc-128" target="kRjiYqjKtC23JgH-O0qc-381" edge="1">
          <mxGeometry relative="1" as="geometry">
            <mxPoint x="1500" y="1010" as="targetPoint" />
            <Array as="points">
              <mxPoint x="1130" y="1229" />
              <mxPoint x="1330" y="1229" />
              <mxPoint x="1330" y="1090" />
              <mxPoint x="1620" y="1090" />
            </Array>
            <mxPoint x="310" y="1229" as="sourcePoint" />
          </mxGeometry>
        </mxCell>
      </root>
    </mxGraphModel>
  </diagram>
</mxfile>
